<?xml version="1.0" standalone="no"?>
<!DOCTYPE svg PUBLIC "-//W3C//DTD SVG 1.1//EN" "http://www.w3.org/Graphics/SVG/1.1/DTD/svg11.dtd" >
<svg>
<metadata>
Created by FontForge 20110222 at Mon Mar  7 10:38:29 2011
 By www-data
Copyright (c) Gilles Pegel, 2005. All rights reserved.
</metadata>
<defs>
<font id="Butter-unsalted" horiz-adv-x="560" >
  <font-face 
    font-family="Butter"
    font-weight="500"
    font-stretch="normal"
    units-per-em="1000"
    panose-1="2 0 0 0 0 0 0 0 0 0"
    ascent="800"
    descent="-200"
    x-height="461"
    cap-height="692"
    bbox="-50 -269 978 855"
    underline-thickness="50"
    underline-position="-50"
    unicode-range="U+0020-2122"
  />
    <missing-glyph />
    <glyph glyph-name="B" unicode="B" horiz-adv-x="545" 
d="M333 346q9 -4 27.5 -15.5t37 -31.5t33 -48t14.5 -66t-17.5 -72t-47.5 -59t-70.5 -39.5t-86.5 -14.5h-223v692h209q46 0 86.5 -14.5t71 -39.5t48 -58.5t17.5 -72.5q0 -37 -12 -65.5t-28.5 -48.5t-33 -31.5t-25.5 -15.5zM86 370h123q29 0 53.5 10.5t43.5 29.5t29.5 44
t10.5 53t-10.5 53t-29.5 43.5t-43.5 29t-53.5 10.5h-123v-273zM223 49q28 0 53 10.5t43.5 29t29 43.5t10.5 53t-10.5 53t-29 43.5t-43.5 29t-53 10.5h-137v-272h137v0z" />
    <glyph glyph-name="C" unicode="C" horiz-adv-x="550" 
d="M223 700q46 0 86.5 -14.5t70.5 -39.5t47.5 -59t17.5 -72h-86q0 28 -10.5 52.5t-29 43t-43 29.5t-53.5 11q-28 0 -53 -10.5t-44 -29t-29.5 -43.5t-10.5 -53v-338q0 -28 11 -53t29.5 -43.5t43.5 -29t53 -10.5t53 10.5t43.5 29t29 43.5t10.5 53h86q0 -39 -17.5 -72.5
t-47.5 -58.5t-70.5 -39.5t-86.5 -14.5t-87 14.5t-71 39.5t-47.5 59t-17.5 72v338q0 38 17.5 72t48 59t71 39.5t86.5 14.5z" />
    <glyph glyph-name="D" unicode="D" 
d="M223 692q47 0 87.5 -14.5t70.5 -40t47 -59t17 -71.5v-322q0 -39 -17.5 -72.5t-47.5 -58.5t-70.5 -39.5t-86.5 -14.5h-223v692h223zM359 507q0 28 -10.5 53t-29 43.5t-43.5 29t-53 10.5h-137v-594h137q28 0 53 10.5t43.5 29t29 43.5t10.5 53v322z" />
    <glyph glyph-name="E" unicode="E" horiz-adv-x="496" 
d="M0 692h391v-49h-305v-273h273v-49h-273v-272h305v-49h-391v692z" />
    <glyph glyph-name="F" unicode="F" horiz-adv-x="456" 
d="M0 692h391v-49h-305v-273h273v-49h-273v-321h-86v692z" />
    <glyph glyph-name="G" unicode="G" horiz-adv-x="550" 
d="M445 177q0 -39 -17.5 -72.5t-47.5 -58.5t-70.5 -39.5t-86.5 -14.5t-87 14.5t-71 39.5t-47.5 59t-17.5 72v338q0 38 17.5 72t48 59t71 39.5t86.5 14.5t86.5 -14.5t70.5 -39.5t47.5 -59t17.5 -72h-86q0 28 -10.5 52.5t-29 43t-43 29.5t-53.5 11q-28 0 -53 -10.5t-43.5 -29
t-29 -43.5t-10.5 -53v-338q0 -28 10.5 -53t29 -43.5t43.5 -29t53 -10.5t53 10.5t43.5 29t29 43.5t10.5 53v136h-136v49h222v-185z" />
    <glyph glyph-name="H" unicode="H" horiz-adv-x="570" 
d="M0 692h86v-322h273v322h86v-692h-86v321h-273v-321h-86v692z" />
    <glyph glyph-name="I" unicode="I" horiz-adv-x="201" 
d="M86 0h-86v692h86v-692z" />
    <glyph glyph-name="J" unicode="J" horiz-adv-x="287" 
d="M172 700v-515q0 -38 -17 -72t-47 -59t-71 -39.5t-87 -14.5v49q28 0 53 10.5t43.5 29t29 43.5t10.5 53v515h86z" />
    <glyph glyph-name="K" unicode="K" 
d="M359 505v179h86v-180q0 -31 -11 -56.5t-27.5 -45.5t-36.5 -34t-37 -22q19 -9 39 -24t36 -35t26.5 -45.5t10.5 -56.5v-185h-86v185q0 28 -10.5 52.5t-29 43t-43.5 29.5t-54 11h-136v-321h-86v692h86v-322h136q28 0 53 10.5t43.5 29t29.5 43t11 52.5z" />
    <glyph glyph-name="L" unicode="L" horiz-adv-x="456" 
d="M86 49h305v-49h-391v692h86v-643z" />
    <glyph glyph-name="M" unicode="M" horiz-adv-x="919" 
d="M804 516v-516h-86v516q0 28 -10.5 52.5t-29 43t-43.5 29t-53 10.5t-53 -10.5t-44 -29t-29.5 -43.5t-10.5 -53v-515h-86v516q0 28 -10.5 52.5t-29 43t-43.5 29t-53 10.5t-53 -10.5t-43.5 -29t-29 -43.5t-10.5 -53v-515h-87v516q0 38 17.5 71.5t48 58.5t71 39.5t86.5 14.5
q56 0 102.5 -20.5t76.5 -55.5q31 35 77.5 55.5t102.5 20.5q46 0 86 -14.5t70 -39.5t48 -58.5t18 -71.5z" />
    <glyph glyph-name="N" unicode="N" 
d="M0 516q0 38 18 71.5t48 58.5t70.5 39.5t86.5 14.5t86.5 -14.5t70.5 -39.5t47.5 -58.5t17.5 -71.5v-516h-86v516q0 29 -10.5 53.5t-29 42.5t-43.5 28.5t-53 10.5t-53 -10.5t-44 -29t-29.5 -43.5t-10.5 -53v-515h-86v516v0z" />
    <glyph glyph-name="O" unicode="O" 
d="M223 700q46 0 86.5 -14.5t70.5 -39.5t47.5 -59t17.5 -72v-339q0 -38 -17.5 -71.5t-47.5 -58.5t-70.5 -39.5t-86.5 -14.5t-86.5 14.5t-71 39.5t-48 58.5t-17.5 71.5v339q0 38 17.5 72t48 59t71 39.5t86.5 14.5zM359 515q0 28 -10.5 53t-29 43.5t-43.5 29t-53 10.5
t-53 -10.5t-43.5 -29t-29.5 -43t-11 -52.5v-339q0 -28 10.5 -53t29.5 -43.5t44 -29t53 -10.5t52.5 10.5t43 28.5t29.5 42.5t11 52.5v340z" />
    <glyph glyph-name="P" unicode="P" horiz-adv-x="510" 
d="M222 692q47 0 87.5 -14.5t70.5 -40t47.5 -59t17.5 -71.5t-17.5 -71.5t-47.5 -59t-70.5 -40.5t-87.5 -15h-136v-321h-86v692h222zM222 370q29 0 54 11t43.5 29.5t29 43.5t10.5 53t-10.5 52.5t-29.5 43t-43.5 29.5t-53.5 11h-136v-273h136z" />
    <glyph glyph-name="Q" unicode="Q" 
d="M445 176q0 -45 -23.5 -82.5t-62.5 -62.5l86 -148h-93l-64 117q-34 -8 -65 -8q-46 0 -86.5 14.5t-71 39.5t-48 58.5t-17.5 71.5v339q0 38 17.5 72t48 59t71 39.5t86.5 14.5t86.5 -14.5t70.5 -39.5t47.5 -59t17.5 -72v-339zM359 515q0 28 -10.5 53t-29 43.5t-43.5 29
t-53 10.5t-53 -10.5t-43.5 -29t-29.5 -43t-11 -52.5v-339q0 -28 10.5 -53t29.5 -43.5t44 -29t53 -10.5t52.5 10.5t43 28.5t29.5 42.5t11 52.5v340z" />
    <glyph glyph-name="R" unicode="R" 
d="M333 346q19 -9 39 -24t36 -35t26.5 -45.5t10.5 -56.5v-185h-86v185q0 28 -10.5 52.5t-29 43t-43 29.5t-53.5 11h-137v-321h-86v692h209q47 0 87.5 -14.5t70.5 -40t47 -59t17 -71.5q0 -52 -23.5 -94.5t-74.5 -66.5zM86 370h123q29 0 53.5 11t43 29.5t29 43.5t10.5 53
t-10.5 52.5t-29 43t-43 29.5t-53.5 11h-123v-273z" />
    <glyph glyph-name="S" unicode="S" horiz-adv-x="550" 
d="M432 579l-75 -37q-3 17 -13.5 36.5t-27.5 35.5t-40 26.5t-53 10.5q-29 0 -54 -11t-43 -29.5t-28.5 -43.5t-10.5 -52q0 -41 26.5 -65.5t66.5 -42.5t86 -34t86 -39.5t66.5 -60.5t26.5 -96q0 -38 -17.5 -72t-47.5 -59t-70.5 -39.5t-86.5 -14.5t-86.5 14.5t-71 39.5t-48 58.5
t-17.5 72.5h87q0 -29 11 -54t29.5 -43t43 -28.5t52.5 -10.5t53 10.5t43.5 29t29 43.5t10.5 53q0 39 -15 64.5t-40 43.5t-57 30.5t-65 24t-65 24.5t-57 32.5t-40 48t-15 70.5q0 39 17 72.5t46.5 58.5t69 39.5t85.5 14.5q48 0 85 -13.5t62.5 -32.5t40.5 -39.5t21 -35.5z" />
    <glyph glyph-name="T" unicode="T" horiz-adv-x="465" 
d="M415 692v-49h-180v-643h-86v643h-179v49h445z" />
    <glyph glyph-name="U" unicode="U" 
d="M445 692v-516q0 -38 -17.5 -71.5t-48 -58.5t-71 -39.5t-86.5 -14.5t-86.5 14.5t-70.5 39.5t-47.5 58.5t-17.5 71.5v516h86v-515q0 -28 10.5 -53t29 -43.5t43.5 -29t53 -10.5t53 10.5t43.5 28.5t29.5 42.5t11 52.5v517h86z" />
    <glyph glyph-name="V" unicode="V" 
d="M445 692v-508q0 -38 -17.5 -71.5t-48 -58.5t-71 -39.5t-86.5 -14.5h-222v692h86v-643h136q28 0 53 10.5t43.5 29t29.5 43t11 52.5v508h86z" />
    <glyph glyph-name="W" unicode="W" horiz-adv-x="919" 
d="M804 692v-508q0 -38 -17.5 -71.5t-47.5 -58.5t-70.5 -39.5t-86.5 -14.5h-359q-46 0 -86.5 14.5t-71 39.5t-48 58.5t-17.5 71.5v508h86v-508q0 -28 11 -52.5t29.5 -43t43.5 -29t53 -10.5h136v643h86v-643h137q28 0 52.5 10.5t43 29t29.5 43t11 52.5v508h86z" />
    <glyph glyph-name="X" unicode="X" horiz-adv-x="559" 
d="M332 346q51 -24 81.5 -66t30.5 -94v-186h-86v186q0 28 -10.5 52.5t-29 43t-43.5 29t-53 10.5t-53 -10.5t-43.5 -29t-29 -43.5t-10.5 -53v-185h-86v186q0 52 30.5 94t81.5 66q-51 24 -81.5 66t-30.5 93v187h86v-185q0 -28 10.5 -53t29 -44t43.5 -29.5t53 -10.5t53 10.5
t43.5 29t29 43t10.5 52.5v187h86v-187q0 -51 -30.5 -93t-81.5 -66z" />
    <glyph glyph-name="Y" unicode="Y" horiz-adv-x="526" 
d="M189 41q28 0 52.5 10.5t43 29t29.5 43.5t11 53v144h-123q-46 0 -86.5 15t-70.5 40.5t-47.5 59t-17.5 71.5v185h87v-187q0 -28 10.5 -52.5t29.5 -43t44 -29.5t53 -11h123v323h84v-517q0 -37 -17.5 -70.5t-47.5 -58.5t-70.5 -39.5t-86.5 -14.5v49z" />
    <glyph glyph-name="Z" unicode="Z" horiz-adv-x="530" 
d="M411 692v-185q0 -59 -25.5 -92.5t-64 -54t-83 -33t-83 -29t-64 -42t-25.5 -71.5v-136h359v-49h-445v185q0 58 25.5 91.5t64 54t83 33t83 29t64 42.5t25.5 72v136h-332v49h418z" />
    <glyph glyph-name="A" unicode="A" 
d="M222 700q46 0 86.5 -14.5t71 -39.5t48 -59t17.5 -72v-515h-87v321h-272v-321h-86v515q0 38 17.5 71.5t47.5 59t70.5 40t86.5 14.5zM358 515q0 29 -10.5 53.5t-29 43t-43.5 29t-53 10.5t-53 -10.5t-43.5 -29t-29 -43.5t-10.5 -53v-145h272v145z" />
    <glyph glyph-name="a" unicode="a" horiz-adv-x="441" 
d="M168 469q35 0 65.5 -10t53 -28t36 -41.5t13.5 -50.5v-339h-79v34h-2q-11 -11 -28 -21q-14 -8 -34.5 -14.5t-46.5 -6.5q-30 0 -56.5 10t-46.5 27.5t-31.5 41.5t-11.5 51t11.5 51t31.5 41.5t46.5 27.5t56.5 10h109v87q0 36 -25.5 61.5t-61.5 25.5q-26 0 -46 -13t-31 -35
l-48 48q23 20 55 31.5t70 11.5zM255 209h-87q-18 0 -34 -7t-27.5 -19t-18.5 -27.5t-7 -33.5t7 -34t19 -27.5t27.5 -18.5t33.5 -7t33.5 6.5t27.5 18.5t19 28t7 34v87z" />
    <glyph glyph-name="b" unicode="b" horiz-adv-x="441" 
d="M190 469q30 0 56.5 -10t46.5 -28t31.5 -41.5t11.5 -50.5v-217q0 -27 -11.5 -50.5t-31.5 -41.5t-46.5 -28t-56.5 -10q-26 0 -46.5 6.5t-34.5 14.5q-17 10 -28 21h-1v-34h-80v730h81v-302h2q12 12 28 21q14 8 33.5 14t45.5 6zM168 35q36 0 61.5 25.5t25.5 61.5v217
q0 18 -6.5 33.5t-18.5 27.5t-28 19t-34 7t-34 -7t-28 -19t-18.5 -27.5t-6.5 -33.5v-217q0 -36 25.5 -61.5t61.5 -25.5z" />
    <glyph glyph-name="c" unicode="c" horiz-adv-x="368" 
d="M293 425l-9 -9l-15.5 -15.5t-15 -15.5t-7.5 -8q-2 5 -8 13t-15.5 16t-23 13.5t-31.5 5.5q-36 0 -61.5 -25.5t-25.5 -61.5v-217q0 -18 7 -34t19 -27.5t27.5 -18.5t33.5 -7t31.5 6t23.5 14t16 17t9 16l50 -49q-14 -12 -33 -23q-17 -9 -41 -16.5t-56 -7.5q-35 0 -65.5 10.5
t-53.5 28t-36 41t-13 50.5v217q0 27 13 50.5t36 41t53.5 28t65.5 10.5q29 0 51.5 -6t38 -13.5t24.5 -14.5t11 -9z" />
    <glyph glyph-name="d" unicode="d" horiz-adv-x="451" 
d="M336 730v-730h-79v34h-2q-11 -11 -28 -21q-14 -8 -34.5 -14.5t-46.5 -6.5q-30 0 -56.5 10t-46.5 28t-31.5 41.5t-11.5 50.5v217q0 27 11.5 50.5t31.5 41.5t46.5 28t56.5 10q26 0 45.5 -6t33.5 -14q16 -9 28 -21h2v302h81zM255 339q0 18 -6.5 33.5t-18.5 27.5t-28 19
t-34 7t-34 -7t-28 -19t-18.5 -27.5t-6.5 -33.5v-217q0 -36 25.5 -61.5t61.5 -25.5t61.5 25.5t25.5 61.5v217z" />
    <glyph glyph-name="e" unicode="e" horiz-adv-x="437" 
d="M169 35q36 0 61 25.5t25 61.5h82q0 -27 -13 -50.5t-36 -41.5t-53.5 -28t-65.5 -10t-65.5 10t-53.5 28t-36.5 41.5t-13.5 50.5v217q0 27 13 50.5t36 41t54 28t66 10.5t65.5 -10t53.5 -28t36 -41.5t13 -50.5t-13.5 -51t-36.5 -41.5t-53.5 -27.5t-64.5 -10h-87v-87
q0 -18 7 -34t19 -28t27.5 -18.5t33.5 -6.5zM82 252h87q18 0 33.5 7t27 18.5t18.5 27.5t7 34q0 36 -25 61.5t-61 25.5q-18 0 -34 -7t-28 -19t-18.5 -27.5t-6.5 -33.5v-87z" />
    <glyph glyph-name="f" unicode="f" horiz-adv-x="238" 
d="M0 608q0 27 13.5 50.5t36 41.5t53.5 28t65 10v-44q-18 0 -33.5 -6.5t-27.5 -18t-19 -27.5t-7 -34v-147h87v-43h-87v-418h-81v608z" />
    <glyph glyph-name="g" unicode="g" horiz-adv-x="441" 
d="M336 461v-599q0 -27 -13 -51t-36 -41.5t-53.5 -28t-65.5 -10.5t-65.5 10.5t-53.5 28t-36 41.5t-13 51h81q0 -18 7 -34t19 -28t27.5 -18.5t33.5 -6.5q36 0 61.5 25t25.5 62v171h-2q-11 -11 -27 -20q-14 -8 -33.5 -14.5t-45.5 -6.5q-30 0 -57 10t-47 28t-31.5 41.5
t-11.5 50.5v217q0 27 11.5 50.5t31.5 41.5t47 28t57 10q26 0 46 -6.5t34 -14.5q16 -10 28 -21h2v34h79zM255 339q0 36 -25.5 61.5t-61.5 25.5t-61.5 -25.5t-25.5 -61.5v-217q0 -18 7 -33.5t18.5 -27.5t27.5 -19t34 -7t34 7t28 19t18.5 27.5t6.5 33.5v217z" />
    <glyph glyph-name="h" unicode="h" horiz-adv-x="441" 
d="M190 469q30 0 56.5 -10t46.5 -28t31.5 -41.5t11.5 -50.5v-339h-81v339q0 18 -7 33.5t-18.5 27.5t-27.5 19t-34 7t-34 -7t-28 -19t-18.5 -27.5t-6.5 -33.5v-339h-81v730h81v-302h2q12 12 28 21q14 8 33.5 14t45.5 6z" />
    <glyph glyph-name="i" unicode="i" horiz-adv-x="197" 
d="M87 0h-82v461h82v-461zM92 646q0 -20 -13 -33t-33 -13q-19 0 -32.5 13t-13.5 33q0 19 13.5 32.5t32.5 13.5q20 0 33 -13.5t13 -32.5z" />
    <glyph glyph-name="j" unicode="j" horiz-adv-x="229" 
d="M37 461h81v-599q0 -27 -13 -51t-36 -42t-53.5 -28t-65.5 -10v44q18 0 33.5 6.5t27.5 18t19 27.5t7 35v599zM124 646q0 -20 -13.5 -33t-32.5 -13q-20 0 -33 13t-13 33q0 19 13 32.5t33 13.5q19 0 32.5 -13.5t13.5 -32.5z" />
    <glyph glyph-name="k" unicode="k" horiz-adv-x="441" 
d="M266 228q1 0 12 -7t24 -20t23.5 -33t10.5 -46v-122h-81v122q0 36 -25.5 61.5t-61.5 25.5h-87v-209h-81v730h81v-302h2q12 12 28 21q14 8 33.5 14t45.5 6q30 0 57 -10.5t46.5 -28t31 -41t11.5 -50.5q0 -28 -10.5 -49t-23.5 -34.5t-24 -20.5t-12 -7zM168 252
q36 0 61.5 25.5t25.5 61.5t-25.5 61.5t-61.5 25.5t-61.5 -25.5t-25.5 -61.5v-87h87v0z" />
    <glyph glyph-name="l" unicode="l" horiz-adv-x="187" 
d="M0 730h82v-730h-82v730z" />
    <glyph glyph-name="m" unicode="m" horiz-adv-x="696" 
d="M0 0v339q0 27 13 50.5t36 41.5t53.5 28t65.5 10q38 0 71 -12t56 -33q23 21 56.5 33t71.5 12q35 0 65.5 -10t53.5 -28t36 -41.5t13 -50.5v-339h-81v339q0 36 -25.5 61.5t-61.5 25.5t-61.5 -25.5t-25.5 -61.5v-339h-81v339q0 36 -25.5 61.5t-61.5 25.5t-61.5 -25.5
t-25.5 -61.5v-339h-81z" />
    <glyph glyph-name="n" unicode="n" horiz-adv-x="441" 
d="M168 469q35 0 65.5 -10t53.5 -28t36 -41.5t13 -50.5v-339h-81v339q0 36 -25.5 61.5t-61.5 25.5t-61.5 -25.5t-25.5 -61.5v-339h-81v339q0 27 13 50.5t36 41.5t53.5 28t65.5 10z" />
    <glyph glyph-name="o" unicode="o" horiz-adv-x="442" 
d="M169 469q35 0 65.5 -10t53.5 -28t36 -41.5t13 -50.5v-217q0 -27 -13 -50.5t-36 -41.5t-53.5 -28t-65.5 -10t-65.5 10t-53.5 28t-36 41.5t-13 50.5v217q0 27 13 50.5t36 41.5t53.5 28t65.5 10zM256 339q0 36 -25.5 61.5t-61.5 25.5t-61.5 -25.5t-25.5 -61.5v-217
q0 -36 25.5 -61.5t61.5 -25.5t61.5 25.5t25.5 61.5v217z" />
    <glyph glyph-name="p" unicode="p" horiz-adv-x="442" 
d="M190 469q30 0 57 -10t47 -28t31.5 -41.5t11.5 -50.5v-217q0 -27 -11.5 -50.5t-31.5 -41.5t-47 -28t-57 -10q-26 0 -45.5 6.5t-33.5 14.5q-16 9 -28 20h-1v-294h-82v722h80v-34h2q12 11 28 21q14 8 34 14.5t46 6.5zM255 339q0 36 -25.5 61.5t-61.5 25.5q-18 0 -33.5 -7
t-27 -18.5t-18.5 -27.5t-7 -34v-217q0 -18 6.5 -33.5t18 -27.5t27.5 -19t34 -7t34 7t28 19t18.5 27.5t6.5 33.5v217z" />
    <glyph glyph-name="q" unicode="q" horiz-adv-x="442" 
d="M337 461v-722h-82v294h-1q-12 -11 -28 -20q-14 -8 -33.5 -14.5t-45.5 -6.5q-30 0 -57 10t-47 28t-31.5 41.5t-11.5 50.5v217q0 27 11.5 50.5t31.5 41.5t47 28t57 10q26 0 46 -6.5t34 -14.5q16 -10 28 -21h2v34h80zM255 339q0 18 -7 34t-18.5 27.5t-27 18.5t-33.5 7
q-36 0 -61.5 -25.5t-25.5 -61.5v-217q0 -18 6.5 -33.5t18.5 -27.5t28 -19t34 -7t34 7t27.5 19t18 27.5t6.5 33.5v217z" />
    <glyph glyph-name="r" unicode="r" horiz-adv-x="309" 
d="M229 400q-24 26 -61 26q-36 0 -61.5 -25.5t-25.5 -61.5v-339h-81v461h81v-33h2q12 12 28 21q14 8 33.5 14t45.5 6q46 0 84 -24z" />
    <glyph glyph-name="s" unicode="s" horiz-adv-x="431" 
d="M173 426q-18 0 -34 -7t-28 -19t-18.5 -27.5t-6.5 -33.5q0 -32 18.5 -48.5t46.5 -25.5t60 -16t60 -20t46.5 -37.5t18.5 -69.5q0 -27 -13 -50.5t-36 -41.5t-53.5 -28t-65.5 -10q-34 0 -65 10t-53.5 28t-36 41.5t-13.5 50.5h81q0 -18 7 -34t19 -27.5t27.5 -18.5t33.5 -7
t33.5 6.5t27.5 18.5t19 28t7 34q0 33 -18 49.5t-44.5 26.5t-57.5 17t-57.5 20.5t-44.5 37t-18 66.5q0 27 11.5 50.5t32.5 41t50 28t64 10.5q27 0 49 -5.5t38.5 -13.5t27.5 -16t17 -14q-3 -3 -10.5 -10t-15.5 -15.5t-15.5 -15.5t-9.5 -9q-2 7 -8 16.5t-16 18.5t-24 15t-33 6z
" />
    <glyph glyph-name="t" unicode="t" horiz-adv-x="243" 
d="M0 604h81v-143h87v-43h-87v-296q0 -18 7 -34t19 -28t27.5 -18.5t33.5 -6.5v-43q-34 0 -65 10t-53.5 28t-36 41.5t-13.5 50.5v482z" />
    <glyph glyph-name="u" unicode="u" horiz-adv-x="442" 
d="M337 461v-339q0 -27 -13.5 -50.5t-36.5 -41.5t-53.5 -28t-65.5 -10t-65.5 10t-53.5 28t-36 41.5t-13 50.5v339h82v-339q0 -36 25 -61.5t61 -25.5t61.5 25.5t25.5 61.5v339h82z" />
    <glyph glyph-name="v" unicode="v" horiz-adv-x="441" 
d="M336 461v-331q0 -27 -13 -50.5t-36 -41.5t-53.5 -28t-65.5 -10h-168v461h81v-418h87q36 0 61.5 25.5t25.5 61.5v331h81z" />
    <glyph glyph-name="w" unicode="w" horiz-adv-x="696" 
d="M591 461v-331q0 -27 -13 -50.5t-36 -41.5t-53.5 -28t-65.5 -10h-255q-35 0 -65.5 10t-53.5 28t-36 41.5t-13 50.5v331h81v-331q0 -36 25.5 -61.5t61.5 -25.5h87v418h81v-418h87q36 0 61.5 25.5t25.5 61.5v331h81z" />
    <glyph glyph-name="x" unicode="x" horiz-adv-x="441" 
d="M336 339q0 -34 -20 -62.5t-55 -45.5q35 -18 55 -46.5t20 -62.5v-122h-81v122q0 36 -25.5 61.5t-61.5 25.5t-61.5 -25.5t-25.5 -61.5v-122h-81v122q0 34 20.5 62.5t54.5 46.5q-34 17 -54.5 45.5t-20.5 62.5v122h81v-122q0 -36 25.5 -61.5t61.5 -25.5t61.5 25.5t25.5 61.5
v122h81v-122v0z" />
    <glyph glyph-name="y" unicode="y" horiz-adv-x="441" 
d="M336 461v-599q0 -27 -13 -51t-36 -41.5t-53.5 -28t-65.5 -10.5t-65.5 10.5t-53.5 28t-36 41.5t-13 51h81q0 -18 7 -34t19 -28t27.5 -18.5t33.5 -6.5q36 0 61.5 25t25.5 62v171h-2q-12 -11 -28 -20q-14 -8 -33.5 -14.5t-45.5 -6.5q-30 0 -56.5 10t-46.5 28t-31.5 41.5
t-11.5 50.5v339h81v-339q0 -18 6.5 -33.5t18.5 -27.5t28 -19t34 -7t34 7t28 19t18.5 27.5t6.5 33.5v339h81z" />
    <glyph glyph-name="z" unicode="z" horiz-adv-x="434" 
d="M0 0v122q0 43 17.5 67t44.5 37t57.5 20t57.5 17t44.5 27t17.5 49v79h-239v43h321v-122q0 -45 -17.5 -70t-44.5 -38.5t-57.5 -19.5t-57.5 -15t-44.5 -25t-17.5 -49v-79h247v-43h-329z" />
    <glyph glyph-name="Atilde" unicode="&#xc3;" 
d="M223 700q46 0 86.5 -14.5t70.5 -39.5t47.5 -59t17.5 -72v-515h-86v321h-273v-321h-86v515q0 38 17.5 71.5t47.5 59t70.5 40t87.5 14.5zM359 515q0 29 -11 53.5t-29.5 43t-43 29t-52.5 10.5t-53 -10.5t-44 -29t-29.5 -43.5t-10.5 -53v-145h273v145zM179 785q-18 0 -26 -14
t-10 -31h-52q0 16 4 33t12.5 31.5t22.5 24t34 10.5h3q15 0 28 -6t25 -13.5t23.5 -13.5t23.5 -6q22 0 27.5 13.5t7.5 30.5h52q0 -16 -4 -33t-12.5 -31t-22 -24t-33.5 -11h-3q-15 0 -28 6.5t-25 14t-23.5 13.5t-23.5 6z" />
    <glyph glyph-name="tilde" unicode="&#x2dc;" horiz-adv-x="368" 
d="M87 559q-18 0 -25.5 -14t-9.5 -31h-52q0 16 4 33t12.5 31.5t22.5 24t34 10.5h3q15 0 28 -6t25 -13.5t23 -13.5t23 -6q23 0 28.5 14t7.5 31h52q0 -16 -4 -33t-13 -31.5t-22.5 -24t-33.5 -10.5h-3q-15 0 -28 6t-25 13.5t-23.5 13.5t-23.5 6z" />
    <glyph glyph-name="Aring" unicode="&#xc5;" 
d="M223 700q46 0 86.5 -14.5t70.5 -39.5t47.5 -59t17.5 -72v-515h-86v321h-273v-321h-86v515q0 38 17.5 71.5t47.5 59t70.5 40t87.5 14.5zM359 515q0 29 -11 53.5t-29.5 43t-43 29t-52.5 10.5t-53 -10.5t-44 -29t-29.5 -43.5t-10.5 -53v-145h273v145zM223 738
q-23 0 -39 15.5t-16 38.5t16 38.5t39 15.5t38.5 -15.5t15.5 -38.5t-15.5 -38.5t-38.5 -15.5zM223 825q-14 0 -23.5 -9.5t-9.5 -23.5t9.5 -23t23.5 -9t23 9t9 23t-9 23.5t-23 9.5z" />
    <glyph glyph-name="Adieresis" unicode="&#xc4;" 
d="M155 749q-18 0 -31 13t-13 31t13 30.5t31 12.5t30.5 -12.5t12.5 -30.5t-12.5 -31t-30.5 -13zM291 749q-18 0 -31 13t-13 31t13 30.5t31 12.5t30.5 -12.5t12.5 -30.5t-12.5 -31t-30.5 -13zM223 700q46 0 86.5 -14.5t70.5 -39.5t47.5 -59t17.5 -72v-515h-86v321h-273v-321
h-86v515q0 38 17.5 71.5t47.5 59t70.5 40t87.5 14.5zM359 515q0 29 -11 53.5t-29.5 43t-43 29t-52.5 10.5t-53 -10.5t-44 -29t-29.5 -43.5t-10.5 -53v-145h273v145z" />
    <glyph glyph-name="Acircumflex" unicode="&#xc2;" 
d="M222 700q46 0 86.5 -14.5t71 -39.5t48 -59t17.5 -72v-515h-87v321h-272v-321h-86v515q0 38 17.5 71.5t47.5 59t70.5 40t86.5 14.5zM358 515q0 29 -10.5 53.5t-29 43t-43.5 29t-53 10.5t-53 -10.5t-43.5 -29t-29 -43.5t-10.5 -53v-145h272v145zM148 738h-43l76 108h82
l76 -108h-43l-74 77z" />
    <glyph glyph-name="Agrave" unicode="&#xc0;" 
d="M222 700q46 0 86.5 -14.5t71 -39.5t48 -59t17.5 -72v-515h-86v321h-273v-321h-86v515q0 38 17.5 71.5t47.5 59t70.5 40t86.5 14.5zM359 515q0 29 -11 53.5t-29.5 43t-43.5 29t-53 10.5t-53 -10.5t-43.5 -29t-29 -43.5t-10.5 -53v-145h273v145zM250 738l-125 108h93
l76 -108h-44z" />
    <glyph glyph-name="Aacute" unicode="&#xc1;" 
d="M223 700q46 0 86.5 -14.5t70.5 -39.5t47.5 -59t17.5 -72v-515h-86v321h-272v-321h-87v515q0 38 17.5 71.5t47.5 59t71 40t87 14.5zM359 515q0 29 -11 53.5t-29.5 43t-43 29t-52.5 10.5t-53 -10.5t-43.5 -29t-29 -43.5t-10.5 -53v-145h272v145zM196 738h-44l76 108h93z
" />
    <glyph glyph-name="Edieresis" unicode="&#xcb;" horiz-adv-x="506" 
d="M86 643v-273h273v-49h-273v-272h305v-49h-391v692h391v-49h-305zM130 749q-18 0 -30.5 13t-12.5 31t12.5 30.5t30.5 12.5t31 -12.5t13 -30.5t-13 -31t-31 -13zM266 749q-18 0 -30.5 13t-12.5 31t12.5 30.5t30.5 12.5t31 -12.5t13 -30.5t-13 -31t-31 -13z" />
    <glyph glyph-name="Ecircumflex" unicode="&#xca;" horiz-adv-x="506" 
d="M87 643v-273h272v-49h-272v-272h304v-49h-391v692h391v-49h-304zM125 738h-44l76 108h83l76 -108h-44l-74 77z" />
    <glyph glyph-name="Eacute" unicode="&#xc9;" horiz-adv-x="505" 
d="M86 643v-273h272v-49h-272v-272h304v-49h-390v692h390v-49h-304zM165 738h-43l76 108h93z" />
    <glyph glyph-name="Egrave" unicode="&#xc8;" horiz-adv-x="506" 
d="M86 643v-273h273v-49h-273v-272h305v-49h-391v692h391v-49h-305zM237 738l-125 108h93l76 -108h-44z" />
    <glyph glyph-name="Icircumflex" unicode="&#xce;" horiz-adv-x="234" 
d="M24 692h86v-692h-86v692zM184 738h-43l-74 77l-74 -77h-43l76 108h82z" />
    <glyph glyph-name="Idieresis" unicode="&#xcf;" horiz-adv-x="268" 
d="M19 692h86v-692h-86v692zM37 793q0 -18 -12.5 -31t-30.5 -13t-31 13t-13 31t13 30.5t31 12.5t30.5 -12.5t12.5 -30.5zM130 836q18 0 30.5 -12.5t12.5 -30.5t-12.5 -31t-30.5 -13t-31 13t-13 31t13 30.5t31 12.5z" />
    <glyph glyph-name="Igrave" unicode="&#xcc;" horiz-adv-x="194" 
d="M10 692h86v-692h-86v692zM76 738l-126 108h93l76 -108h-43z" />
    <glyph glyph-name="Iacute" unicode="&#xcd;" horiz-adv-x="224" 
d="M11 692h86v-692h-86v692zM44 738h-44l76 108h93z" />
    <glyph glyph-name="Ntilde" unicode="&#xd1;" 
d="M445 0h-86v516q0 28 -10.5 52.5t-29 43t-43.5 29t-53 10.5t-53 -10.5t-44 -29t-29.5 -43.5t-10.5 -53v-515h-86v516q0 38 17.5 71.5t48 58.5t71 39.5t86.5 14.5t86 -14.5t70 -39.5t48 -58.5t18 -71.5v-516zM179 785q-18 0 -26 -14t-10 -31h-51q0 16 3.5 33t12 31.5
t22.5 24t34 10.5h3q15 0 28 -6t25 -13.5t23.5 -13.5t23.5 -6q23 0 28 13.5t7 30.5h52q0 -16 -4 -33t-12.5 -31t-22 -24t-33.5 -11h-3q-15 0 -28 6.5t-25 14t-23.5 13.5t-23.5 6z" />
    <glyph glyph-name="Otilde" unicode="&#xd5;" 
d="M222 700q46 0 86.5 -14.5t71 -39.5t48 -59t17.5 -72v-339q0 -38 -17.5 -71.5t-48 -58.5t-71 -39.5t-86.5 -14.5t-86.5 14.5t-70.5 39.5t-47.5 58.5t-17.5 71.5v339q0 38 17.5 72t47.5 59t70.5 39.5t86.5 14.5zM359 515q0 28 -10.5 53t-29.5 43.5t-43.5 29t-53.5 10.5
q-28 0 -52.5 -10.5t-43 -29t-29.5 -43t-11 -52.5v-339q0 -28 10.5 -53t29 -43.5t43.5 -29t53 -10.5t53 10.5t43.5 29t29.5 43t11 52.5v339zM179 785q-19 0 -26.5 -14t-9.5 -31h-52q0 16 4 33t12.5 31.5t22.5 24t34 10.5h3q15 0 28 -6t25 -13.5t23.5 -13.5t23.5 -6
q22 0 27.5 13.5t7.5 30.5h52q0 -16 -4 -33t-12.5 -31t-22.5 -24t-34 -11h-3q-15 0 -27.5 6.5t-24.5 14t-23.5 13.5t-23.5 6z" />
    <glyph glyph-name="Ograve" unicode="&#xd2;" 
d="M222 700q46 0 86.5 -14.5t71 -39.5t48 -59t17.5 -72v-339q0 -38 -17.5 -71.5t-48 -58.5t-71 -39.5t-86.5 -14.5t-86.5 14.5t-70.5 39.5t-47.5 58.5t-17.5 71.5v339q0 38 17.5 72t47.5 59t70.5 39.5t86.5 14.5zM359 515q0 28 -10.5 53t-29.5 43.5t-43.5 29t-53.5 10.5
q-28 0 -52.5 -10.5t-43 -29t-29.5 -43t-11 -52.5v-339q0 -28 10.5 -53t29 -43.5t43.5 -29t53 -10.5t53 10.5t43.5 29t29.5 43t11 52.5v339zM250 738l-125 108h93l76 -108h-44z" />
    <glyph glyph-name="Oacute" unicode="&#xd3;" 
d="M222 700q46 0 86.5 -14.5t71 -39.5t48 -59t17.5 -72v-339q0 -38 -17.5 -71.5t-48 -58.5t-71 -39.5t-86.5 -14.5t-86.5 14.5t-70.5 39.5t-47.5 58.5t-17.5 71.5v339q0 38 17.5 72t47.5 59t70.5 39.5t86.5 14.5zM359 515q0 28 -11 53t-29.5 43.5t-43.5 29t-53 10.5
t-53 -10.5t-43.5 -29t-29 -43t-10.5 -52.5v-339q0 -28 10.5 -53t29 -43.5t43.5 -29t53 -10.5t53 10.5t43.5 29t29.5 43t11 52.5v339zM195 738h-43l76 108h93z" />
    <glyph glyph-name="Ocircumflex" unicode="&#xd4;" 
d="M222 700q46 0 86.5 -14.5t71 -39.5t48 -59t17.5 -72v-339q0 -38 -17.5 -71.5t-48 -58.5t-71 -39.5t-86.5 -14.5t-86.5 14.5t-70.5 39.5t-47.5 58.5t-17.5 71.5v339q0 38 17.5 72t47.5 59t70.5 39.5t86.5 14.5zM359 515q0 28 -10.5 53t-29.5 43.5t-43.5 29t-53.5 10.5
q-28 0 -53 -10.5t-43.5 -29t-29 -43t-10.5 -52.5v-339q0 -28 10.5 -53t29 -43.5t43.5 -29t53 -10.5t53 10.5t43.5 29t29.5 43t11 52.5v339zM149 738h-44l76 108h82l76 -108h-43l-74 77z" />
    <glyph glyph-name="Odieresis" unicode="&#xd6;" 
d="M223 700q46 0 86.5 -14.5t70.5 -39.5t47.5 -59t17.5 -72v-339q0 -38 -17.5 -71.5t-47.5 -58.5t-70.5 -39.5t-86.5 -14.5t-86.5 14.5t-71 39.5t-48 58.5t-17.5 71.5v339q0 38 17.5 72t48 59t71 39.5t86.5 14.5zM359 515q0 28 -10.5 53t-29 43.5t-43.5 29t-53 10.5
t-53 -10.5t-43.5 -29t-29 -43t-10.5 -52.5v-339q0 -28 10.5 -53t29 -43.5t43.5 -29t53 -10.5t53 10.5t43.5 29t29 43t10.5 52.5v339zM291 749q-18 0 -30.5 13t-12.5 31t12.5 30.5t30.5 12.5t31 -12.5t13 -30.5t-13 -31t-31 -13zM155 749q-18 0 -30.5 13t-12.5 31t12.5 30.5
t30.5 12.5t30.5 -12.5t12.5 -30.5t-12.5 -31t-30.5 -13z" />
    <glyph glyph-name="Scaron" unicode="&#x160;" 
d="M181 738l-76 108h44l73 -77l74 77h43l-76 -108h-82zM86 515q0 -41 26.5 -65.5t66.5 -42.5t86.5 -34t86.5 -39.5t66.5 -60.5t26.5 -96q0 -38 -17.5 -72t-48 -59t-71 -39.5t-86.5 -14.5t-86.5 14.5t-70.5 39.5t-47.5 58.5t-17.5 72.5h86q0 -29 11 -54t29.5 -43t43.5 -28.5
t52 -10.5q28 0 53 10.5t43.5 29t29.5 43.5t11 53q0 39 -15 64.5t-40 43.5t-57 30.5t-65 24t-65 24.5t-57 32.5t-40 48t-15 70.5q0 39 17 72.5t46 58.5t68.5 39.5t85.5 14.5q48 0 85 -13.5t62.5 -32.5t40.5 -39.5t21 -35.5l-75 -37q-3 17 -13 36.5t-27 35.5t-40.5 26.5
t-53.5 10.5q-29 0 -54 -11t-43 -29.5t-28.5 -43.5t-10.5 -52z" />
    <glyph glyph-name="mu" unicode="&#xb5;" horiz-adv-x="442" 
d="M337 461v-339q0 -27 -13 -50.5t-36 -41.5t-53.5 -28t-65.5 -10q-25 0 -46.5 7t-39.5 19l-1 -1v-134h-82v578h82v-339q0 -36 25.5 -61.5t61.5 -25.5t61.5 25.5t25.5 61.5v339h81z" />
    <glyph glyph-name="guillemotright" unicode="&#xbb;" horiz-adv-x="528" 
d="M250 209l-250 -188v49l210 171l-210 171v49l250 -187v-65zM423 274v-65l-249 -188v49l209 171l-209 171v49z" />
    <glyph glyph-name="guillemotleft" unicode="&#xab;" horiz-adv-x="528" 
d="M423 412l-210 -171l210 -171v-49l-250 188v65l250 187v-49zM39 241l210 -171v-49l-249 188v65l249 187v-49z" />
    <glyph glyph-name="guilsinglright" unicode="&#x203a;" horiz-adv-x="355" 
d="M250 274v-65l-250 -188v49l210 171l-210 171v49z" />
    <glyph glyph-name="guilsinglleft" unicode="&#x2039;" horiz-adv-x="355" 
d="M250 461v-49l-210 -171l210 -171v-49l-250 188v65z" />
    <glyph glyph-name="asciicircum" unicode="^" horiz-adv-x="525" 
d="M190 692h65l190 -383h-49l-173 343l-174 -343h-49z" />
    <glyph glyph-name="zero" unicode="0" horiz-adv-x="535" 
d="M445 176q0 -38 -18 -71.5t-48 -58.5t-70.5 -39.5t-86.5 -14.5t-86.5 14.5t-70.5 39.5t-47.5 58.5t-17.5 71.5v339q0 38 17.5 72t47.5 59t70.5 39.5t86.5 14.5t86.5 -14.5t71 -39.5t48 -59t17.5 -72v-339v0zM86 177q0 -39 20 -70l199 516q-36 28 -83 28q-28 0 -52.5 -10.5
t-43 -29t-29.5 -43t-11 -52.5v-339zM359 515q0 18 -5 35t-13 31l-198 -515q34 -25 79 -25q28 0 53 10.5t43.5 28.5t29.5 42.5t11 52.5v340z" />
    <glyph glyph-name="one" unicode="1" horiz-adv-x="302" 
d="M192 692v-692h-87v544q-3 -2 -13.5 -8.5t-28 -13t-41.5 -12t-52 -5.5v51q27 0 51.5 10.5t43 28.5t29.5 43t11 54h86h1z" />
    <glyph glyph-name="two" unicode="2" horiz-adv-x="535" 
d="M445 507q0 -58 -26.5 -92t-66.5 -54.5t-86.5 -33t-86.5 -29t-66.5 -42t-26.5 -71.5v-136h359v-49h-445v185q0 58 26.5 91.5t66.5 54t86 33t86 29t66.5 42.5t26.5 72q0 31 -11.5 56t-30.5 43t-43.5 27.5t-49.5 9.5q-28 0 -53 -11t-44 -29.5t-29.5 -43t-10.5 -52.5h-86
q0 47 19.5 83t51 60.5t71.5 37t81 12.5q32 0 70.5 -10t72 -33t56.5 -60t23 -90z" />
    <glyph glyph-name="three" unicode="3" horiz-adv-x="525" 
d="M323 346q9 -4 27.5 -15.5t37 -31.5t33 -48t14.5 -66t-17.5 -72t-47.5 -59t-70.5 -39.5t-86.5 -14.5h-223v49h223q28 0 53 10.5t43.5 29t29 43.5t10.5 53t-10.5 53t-29 43.5t-43.5 29t-53 10.5h-207v49h193q28 0 53 10.5t43.5 29.5t29 44t10.5 53t-10.5 53t-29 43.5
t-43.5 29t-53 10.5h-201v49h201q46 0 86.5 -14.5t70.5 -39.5t47.5 -58.5t17.5 -72.5q0 -37 -12 -65.5t-28 -48.5t-32.5 -31.5t-25.5 -15.5z" />
    <glyph glyph-name="four" unicode="4" horiz-adv-x="515" 
d="M435 209h-87v-209h-86v209h-50q-46 0 -86.5 14.5t-70.5 39.5t-47.5 59t-17.5 72v298h86v-298q0 -28 10.5 -53t29 -43.5t43.5 -29t53 -10.5h50v263h86v-263h87v-49z" />
    <glyph glyph-name="five" unicode="5" horiz-adv-x="535" 
d="M445 185q0 -53 -22.5 -90t-56.5 -60t-72.5 -33t-70.5 -10q-40 0 -80 12.5t-71.5 37t-51 60.5t-19.5 83h86q0 -28 10.5 -52.5t29 -43t43.5 -29.5t53 -11q26 0 50 9.5t43.5 27t31 43t11.5 56.5q0 46 -26.5 72t-66.5 42.5t-86.5 29t-86.5 33t-66.5 54t-26.5 91.5v185h432
v-121h-86v72h-260v-136q0 -35 15.5 -57.5t40.5 -38t57.5 -26t66 -21t66 -23.5t57.5 -33t40.5 -49.5t15.5 -73.5z" />
    <glyph glyph-name="six" unicode="6" horiz-adv-x="535" 
d="M223 362q46 0 86.5 -14.5t70.5 -39.5t47.5 -59t17.5 -72t-17.5 -72t-47.5 -59t-70.5 -39.5t-86.5 -14.5t-86.5 14.5t-71 39.5t-48 59t-17.5 72v338q0 38 17.5 72t48 59t71 39.5t86.5 14.5t80.5 -12.5t57.5 -28t36 -30t16 -18.5l-59 -59q-14 45 -49.5 72t-81.5 27
q-28 0 -53 -10.5t-43.5 -29t-29.5 -43.5t-11 -53v-192q29 18 63.5 28.5t73.5 10.5zM223 41q28 0 53 10.5t43.5 29t29 43.5t10.5 53t-10.5 53t-29 43.5t-43.5 29t-53 10.5t-53 -10.5t-43.5 -29t-29 -43.5t-10.5 -53t10.5 -53t29 -43.5t43.5 -29t53 -10.5z" />
    <glyph glyph-name="seven" unicode="7" horiz-adv-x="459" 
d="M56 0v165q0 58 19 93t47.5 57.5t61.5 38t61.5 34t47.5 46t19 73.5v136h-256v-72h-86v121h429v-153q0 -71 -19 -114.5t-47.5 -70t-62 -42.5t-62 -31.5t-47.5 -36.5t-19 -59v-185h-86z" />
    <glyph glyph-name="eight" unicode="8" horiz-adv-x="545" 
d="M313 346q59 -22 95.5 -67t36.5 -102q0 -38 -17.5 -72t-47.5 -59t-70.5 -39.5t-86.5 -14.5t-86.5 14.5t-71 39.5t-48 59t-17.5 72q0 57 37 102t95 67q-56 22 -88 67t-32 102q0 38 15.5 72t43.5 59t67 39.5t85 14.5t84.5 -14.5t66.5 -39.5t43.5 -59t15.5 -72
q0 -57 -31.5 -102t-88.5 -67zM88 515q0 -28 10.5 -53t29 -44t43 -29.5t52.5 -10.5t52.5 10.5t42.5 29.5t28.5 44t10.5 53t-10.5 53t-28.5 43.5t-42.5 29t-52.5 10.5t-52.5 -10.5t-43 -29t-29 -43.5t-10.5 -53zM223 41q28 0 53 10.5t43.5 29t29 43.5t10.5 53t-10.5 53
t-29 43.5t-43.5 29t-53 10.5t-53 -10.5t-43.5 -29t-29.5 -43.5t-11 -53t11 -53t29.5 -43.5t43.5 -29t53 -10.5z" />
    <glyph glyph-name="nine" unicode="9" horiz-adv-x="535" 
d="M222 330q-46 0 -86.5 14.5t-70.5 39.5t-47.5 58.5t-17.5 72.5q0 38 17.5 72t47.5 59t70.5 39.5t86.5 14.5t86.5 -14.5t71 -39.5t48 -59t17.5 -72v-338q0 -38 -17.5 -72t-48 -59t-71 -39.5t-86.5 -14.5t-86.5 14.5t-70.5 39.5t-47.5 59t-17.5 72h86q0 -28 10.5 -53
t29 -43.5t43.5 -29t53 -10.5q29 0 53.5 10.5t43.5 29t29.5 43.5t10.5 53v192q-59 -39 -137 -39zM222 651q-28 0 -53 -10.5t-43.5 -29t-29 -43.5t-10.5 -53t10.5 -53t29 -44t43.5 -29.5t53 -10.5q29 0 53.5 10.5t43.5 29.5t29.5 44t10.5 53t-10.5 53t-29.5 43.5t-43.5 29
t-53.5 10.5z" />
    <glyph glyph-name="braceleft" unicode="{" horiz-adv-x="370" 
d="M169 5q0 -37 25.5 -61.5t60.5 -24.5v-44q-34 0 -65 10t-53.5 28t-36 41.5t-13.5 50.5v250q0 18 -7 34t-19 28t-27.5 18.5t-33.5 6.5v44q18 0 33.5 6.5t27.5 18t19 27.5t7 34v252q0 27 13.5 51t36 42t53.5 28t65 10v-44q-35 0 -60.5 -25t-25.5 -62v-252q0 -34 -21.5 -62
t-55.5 -46q34 -18 55.5 -46t21.5 -63v-250z" />
    <glyph glyph-name="braceright" unicode="}" horiz-adv-x="370" 
d="M87 255q0 35 21.5 63t54.5 46q-33 18 -54.5 46t-21.5 62v252q0 18 -7 34t-19 28t-27.5 18.5t-33.5 6.5v44q35 0 65.5 -10t53.5 -28t36 -42t13 -51v-252q0 -18 7 -34t19 -27.5t27.5 -18t33.5 -6.5v-44q-18 0 -33.5 -6.5t-27.5 -18.5t-19 -28t-7 -34v-250q0 -27 -13 -50.5
t-36 -41.5t-53.5 -28t-65.5 -10v44q18 0 33.5 6.5t27.5 18t19 27.5t7 34v250z" />
    <glyph glyph-name="bracketleft" unicode="[" horiz-adv-x="258" 
d="M81 5q0 -18 7 -34t19 -27.5t27.5 -18t33.5 -6.5v-44q-35 0 -65.5 10t-53.5 28t-36 41.5t-13 50.5v719q0 27 13 51t36 42t53.5 28t65.5 10v-44q-18 0 -33.5 -6.5t-27.5 -18.5t-19 -28t-7 -34v-719z" />
    <glyph glyph-name="bracketright" unicode="]" horiz-adv-x="258" 
d="M86 724q0 18 -7 34t-18.5 28t-27 18.5t-33.5 6.5v44q35 0 65.5 -10t53 -28t36 -42t13.5 -51v-719q0 -27 -13.5 -50.5t-36 -41.5t-53 -28t-65.5 -10v44q18 0 33.5 6.5t27 18t18.5 27.5t7 34v719z" />
    <glyph glyph-name="parenleft" unicode="(" horiz-adv-x="350" 
d="M234 846q-32 -40 -60 -93.5t-48.5 -116.5t-32.5 -132t-12 -141q0 -70 12.5 -138.5t33.5 -130.5t49 -116t59 -95h-84q-30 41 -57.5 92.5t-48 112t-33 130t-12.5 146.5t15 151.5t37.5 139t48.5 114.5t50 77h83z" />
    <glyph glyph-name="parenright" unicode=")" horiz-adv-x="350" 
d="M84 846q24 -27 50.5 -77t49 -114.5t37 -139t14.5 -151.5t-12.5 -146.5t-33.5 -130t-48.5 -112t-57.5 -92.5h-83q32 41 59.5 95t48.5 116t33 130.5t12 138.5q0 72 -11.5 141t-32 132t-48.5 116.5t-60 93.5h83z" />
    <glyph glyph-name="Zcaron" unicode="&#x17d;" 
d="M181 738l-76 108h44l73 -77l74 77h44l-76 -108h-83zM445 49v-49h-445v185q0 58 25.5 91.5t64 54t83 33t83 29t64 42.5t25.5 72v136h-331v49h417v-185q0 -59 -25.5 -92.5t-64 -54t-83 -33t-83 -29t-64 -42t-25.5 -71.5v-136h359z" />
    <glyph glyph-name="Ydieresis" unicode="&#x178;" horiz-adv-x="516" 
d="M401 692v-517q0 -37 -17.5 -70.5t-47.5 -58.5t-70.5 -39.5t-86.5 -14.5v49q28 0 52.5 10.5t43 29t29.5 43.5t11 53v144h-123q-46 0 -86.5 15t-70.5 40.5t-47.5 59t-17.5 71.5v185h87v-187q0 -28 10.5 -52.5t29.5 -43t44 -29.5t53 -11h123v323h84zM247 749q-18 0 -30.5 13
t-12.5 31t12.5 30.5t30.5 12.5t30.5 -12.5t12.5 -30.5t-12.5 -31t-30.5 -13zM111 749q-18 0 -31 13t-13 31t13 30.5t31 12.5t30.5 -12.5t12.5 -30.5t-12.5 -31t-30.5 -13z" />
    <glyph glyph-name="Yacute" unicode="&#xdd;" horiz-adv-x="517" 
d="M402 692v-517q0 -37 -17.5 -70.5t-48 -58.5t-71 -39.5t-86.5 -14.5v49q28 0 53 10.5t43.5 29t29.5 43.5t11 53v144h-123q-47 0 -87.5 15t-70.5 40.5t-47.5 59t-17.5 71.5v185h88v-187q0 -28 10.5 -52.5t29 -43t43.5 -29.5t53 -11h123v323h85zM158 738h-44l76 108h93z" />
    <glyph glyph-name="Udieresis" unicode="&#xdc;" 
d="M445 692v-516q0 -38 -17.5 -71.5t-47.5 -58.5t-70.5 -39.5t-86.5 -14.5t-86.5 14.5t-71 39.5t-48 58.5t-17.5 71.5v516h86v-515q0 -28 11 -53t29.5 -43.5t43.5 -29t53 -10.5t53 10.5t43.5 29t29 43t10.5 52.5v516h86zM291 749q-18 0 -30.5 13t-12.5 31t12.5 30.5
t30.5 12.5t30.5 -12.5t12.5 -30.5t-12.5 -31t-30.5 -13zM155 749q-18 0 -31 13t-13 31t13 30.5t31 12.5t30.5 -12.5t12.5 -30.5t-12.5 -31t-30.5 -13z" />
    <glyph glyph-name="Uacute" unicode="&#xda;" 
d="M445 692v-516q0 -38 -17.5 -71.5t-47.5 -58.5t-70.5 -39.5t-86.5 -14.5t-86.5 14.5t-71 39.5t-48 58.5t-17.5 71.5v516h87v-515q0 -28 10.5 -53t29 -43.5t43.5 -29t53 -10.5t53 10.5t43.5 29t29 43t10.5 52.5v516h86zM201 738h-43l76 108h93z" />
    <glyph glyph-name="Ucircumflex" unicode="&#xdb;" 
d="M445 692v-516q0 -38 -17.5 -71.5t-48 -58.5t-71 -39.5t-86.5 -14.5t-86.5 14.5t-70.5 39.5t-47.5 58.5t-17.5 71.5v516h86v-515q0 -28 10.5 -53t29 -43.5t43.5 -29t53 -10.5t53 10.5t43.5 29t29.5 43t11 52.5v516h86zM149 738h-44l76 108h83l76 -108h-44l-74 77z" />
    <glyph glyph-name="Ugrave" unicode="&#xd9;" 
d="M445 692v-516q0 -38 -17.5 -71.5t-48 -58.5t-71 -39.5t-86.5 -14.5t-86.5 14.5t-70.5 39.5t-47.5 58.5t-17.5 71.5v516h86v-515q0 -28 10.5 -53t29 -43.5t43.5 -29t53 -10.5t53 10.5t43.5 29t29 43t10.5 52.5l0.5 31.5t0.5 80.5v108.5v117v105.5v73h86zM256 738l-126 108
h93l76 -108h-43z" />
    <glyph glyph-name="edieresis" unicode="&#xeb;" horiz-adv-x="441" 
d="M168 36q36 0 61.5 25.5t25.5 61.5h81q0 -27 -13 -51t-36 -41.5t-53.5 -28t-65.5 -10.5t-65.5 10.5t-53.5 28t-36 41.5t-13 51v217q0 27 13 50.5t35.5 41t53.5 28t66 10.5t65.5 -10.5t53.5 -28t36 -41t13 -50.5q0 -28 -13.5 -52t-36.5 -41.5t-53.5 -27.5t-64.5 -10h-87
v-86q0 -19 7 -35t19 -27.5t27.5 -18t33.5 -6.5zM81 253h87q36 0 61.5 25t25.5 62q0 18 -7 33.5t-18.5 27t-27.5 18.5t-34 7t-34 -7t-28 -18.5t-18.5 -27t-6.5 -33.5v-87zM236 524q-18 0 -30.5 12.5t-12.5 30.5t12.5 30.5t30.5 12.5t31 -12.5t13 -30.5t-13 -30.5t-31 -12.5z
M100 524q-18 0 -30.5 12.5t-12.5 30.5t12.5 30.5t30.5 12.5t30.5 -12.5t12.5 -30.5t-12.5 -30.5t-30.5 -12.5z" />
    <glyph glyph-name="dieresis" unicode="&#xa8;" horiz-adv-x="328" 
d="M179 524q-18 0 -30.5 12.5t-12.5 30.5t12.5 30.5t30.5 12.5t31 -12.5t13 -30.5t-13 -30.5t-31 -12.5zM43 524q-18 0 -30.5 12.5t-12.5 30.5t12.5 30.5t30.5 12.5t30.5 -12.5t12.5 -30.5t-12.5 -30.5t-30.5 -12.5z" />
    <glyph glyph-name="icircumflex" unicode="&#xee;" horiz-adv-x="255" 
d="M161 512l-73 77l-74 -77h-44l76 109h83l76 -109h-44zM132 0h-82v461h82v-461z" />
    <glyph glyph-name="acircumflex" unicode="&#xe2;" horiz-adv-x="441" 
d="M168 470q35 0 65.5 -10t53 -28t36 -41.5t13.5 -50.5v-340h-79v35h-2q-12 -11 -28 -21q-14 -8 -34 -15t-46 -7q-30 0 -56.5 10t-47 27.5t-32 41.5t-11.5 52q0 27 11.5 50.5t32 41.5t47 28t56.5 10h108v87q0 36 -25.5 61t-61.5 25q-25 0 -45.5 -13t-31.5 -34l-48 48
q23 20 55 31.5t70 11.5zM255 209h-87q-18 0 -34 -7t-27.5 -18.5t-18.5 -27t-7 -33.5t7 -34t19 -28t27.5 -18.5t33.5 -6.5t33.5 6.5t27.5 18.5t19 28t7 34v86zM101 512h-43l76 109h82l76 -109h-44l-73 77z" />
    <glyph glyph-name="ucircumflex" unicode="&#xfb;" horiz-adv-x="441" 
d="M94 512h-44l76 109h82l76 -109h-43l-74 77zM337 461v-339q0 -27 -13.5 -50.5t-36.5 -41.5t-53.5 -28t-65.5 -10t-65.5 10t-53.5 28t-36 41.5t-13 50.5v339h82v-339q0 -36 25 -61.5t61 -25.5t61.5 25.5t25.5 61.5v339h82z" />
    <glyph glyph-name="ccedilla" unicode="&#xe7;" horiz-adv-x="368" 
d="M298 38q-14 -12 -32 -23q-16 -9 -39 -16t-54 -8l-27 -32l1 -2q6 1 12 1.5t11 0.5q38 0 55 -19.5t17 -42.5t-15 -41q-13 -16 -34 -27.5t-49 -11.5q-20 0 -43 8.5t-49 28.5l6.5 6.5l9.5 9.5l13 13q15 -15 27.5 -20.5t34.5 -5.5q23 4 33 14t10 21q0 12 -11 22t-31 10
q-13 0 -34 -8l-19 34l32 46q-54 12 -88.5 46.5t-34.5 79.5v217q0 27 13 50.5t36 41t53.5 28t65.5 10.5q27 0 49 -5.5t37.5 -13t25 -14t12.5 -9.5l1 -1q-2 -2 -9 -9.5t-15.5 -16l-15 -15l-7.5 -7.5q-2 5 -8 13t-15.5 15.5t-23 13t-31.5 5.5t-34 -7t-27.5 -18.5t-18.5 -27
t-7 -33.5v-217q0 -18 7 -34t19 -28t27.5 -18.5t33.5 -6.5t31.5 6t23.5 14t16 17t9 16z" />
    <glyph glyph-name="odieresis" unicode="&#xf6;" horiz-adv-x="442" 
d="M237 524q-18 0 -30.5 12.5t-12.5 30.5t12.5 30.5t30.5 12.5t30.5 -12.5t12.5 -30.5t-12.5 -30.5t-30.5 -12.5zM101 524q-18 0 -31 12.5t-13 30.5t13 30.5t31 12.5t30.5 -12.5t12.5 -30.5t-12.5 -30.5t-30.5 -12.5zM169 470q35 0 65.5 -10.5t53.5 -28t36 -41t13 -50.5
v-217q0 -27 -13 -51t-36 -42t-53.5 -28t-65.5 -10t-65.5 10t-53.5 28t-36.5 42t-13.5 51v217q0 27 13.5 50.5t36.5 41t53.5 28t65.5 10.5zM256 340q0 36 -25.5 61t-61.5 25t-61.5 -25t-25.5 -61v-217q0 -36 25.5 -61.5t61.5 -25.5t61.5 25.5t25.5 61.5v217z" />
    <glyph glyph-name="udieresis" unicode="&#xfc;" horiz-adv-x="442" 
d="M101 610q18 0 30.5 -12.5t12.5 -30.5t-12.5 -30.5t-30.5 -12.5t-31 12.5t-13 30.5t13 30.5t31 12.5zM237 610q18 0 30.5 -12.5t12.5 -30.5t-12.5 -30.5t-30.5 -12.5t-31 12.5t-13 30.5t13 30.5t31 12.5zM337 461v-339q0 -27 -13.5 -50.5t-36.5 -41.5t-53.5 -28t-65.5 -10
t-65.5 10t-53.5 28t-36 41.5t-13 50.5v339h82v-339q0 -36 25 -61.5t61 -25.5t61.5 25.5t25.5 61.5v339h82z" />
    <glyph glyph-name="adieresis" unicode="&#xe4;" horiz-adv-x="441" 
d="M115 610q18 0 31 -12.5t13 -30.5t-13 -30.5t-31 -12.5t-30.5 12.5t-12.5 30.5t12.5 30.5t30.5 12.5zM251 610q18 0 31 -12.5t13 -30.5t-13 -30.5t-31 -12.5t-30.5 12.5t-12.5 30.5t12.5 30.5t30.5 12.5zM168 470q35 0 65.5 -10t53 -28t36 -41.5t13.5 -50.5v-340h-80v35
h-1q-11 -11 -28 -21q-14 -8 -34.5 -15t-46.5 -7q-30 0 -56.5 10t-46.5 27.5t-31.5 41.5t-11.5 52q0 27 11.5 50.5t31.5 41.5t46.5 28t56.5 10h109v87q0 18 -7 33.5t-19 27.5t-27.5 18.5t-33.5 6.5q-26 0 -46.5 -13t-31.5 -34l-47 48q23 20 55 31.5t70 11.5zM255 209h-87
q-18 0 -34 -7t-28 -18.5t-18.5 -27t-6.5 -33.5q0 -37 25.5 -62t61.5 -25q18 0 33.5 6.5t27.5 18.5t19 28t7 34v86z" />
    <glyph glyph-name="egrave" unicode="&#xe8;" horiz-adv-x="441" 
d="M81 621h94l76 -109h-44zM168 36q-18 0 -33.5 6.5t-27.5 18t-19 27.5t-7 35v86h87q34 0 64.5 10t53.5 27.5t36.5 41.5t13.5 52q0 27 -13 50.5t-36 41t-53.5 28t-65.5 10.5t-65.5 -10.5t-53.5 -28t-36 -41t-13 -50.5v-217q0 -27 13 -51t36 -41.5t53.5 -28t65.5 -10.5
t65.5 10.5t53.5 28t36 41.5t13 51h-81q0 -36 -25.5 -61.5t-61.5 -25.5zM81 340q0 18 7 33.5t18.5 27t27.5 18.5t34 7t34 -7t28 -18.5t18.5 -27t6.5 -33.5q0 -37 -25.5 -62t-61.5 -25h-87v87z" />
    <glyph glyph-name="eacute" unicode="&#xe9;" horiz-adv-x="441" 
d="M125 512h-44l76 109h93zM168 36q36 0 61.5 25.5t25.5 61.5h81q0 -27 -13 -51t-36 -41.5t-53.5 -28t-65.5 -10.5t-65.5 10.5t-53.5 28t-36 41.5t-13 51v217q0 27 13 50.5t36 41t53.5 28t65.5 10.5t65.5 -10.5t53.5 -28t36 -41t13 -50.5q0 -28 -13.5 -52t-36.5 -41.5
t-53.5 -27.5t-64.5 -10h-87v-86q0 -19 7 -35t19 -27.5t27.5 -18t33.5 -6.5zM81 253h87q36 0 61.5 25t25.5 62q0 18 -7 33.5t-18.5 27t-27.5 18.5t-34 7t-34 -7t-28 -18.5t-18.5 -27t-6.5 -33.5v-87z" />
    <glyph glyph-name="ecircumflex" unicode="&#xea;" horiz-adv-x="442" 
d="M168 36q37 0 62 25.5t25 61.5h82q0 -27 -13 -51t-36 -41.5t-54 -28t-66 -10.5t-65.5 10.5t-53.5 28t-36 41.5t-13 51v217q0 27 13 50.5t36 41t53.5 28t65.5 10.5t66 -10.5t54 -28t36 -41t13 -50.5q0 -28 -13.5 -52t-36.5 -41.5t-53.5 -27.5t-65.5 -10h-86v-86
q0 -19 7 -35t18.5 -27.5t27 -18t33.5 -6.5zM82 253h86q36 0 61.5 25t25.5 62q0 18 -6.5 33.5t-18.5 27t-28 18.5t-34 7t-33.5 -7t-27.5 -18.5t-18.5 -27t-6.5 -33.5v-87zM238 512l-74 77l-74 -77h-43l76 109h82l76 -109h-43z" />
    <glyph glyph-name="atilde" unicode="&#xe3;" horiz-adv-x="441" 
d="M168 470q35 0 65.5 -10t53 -28t36 -41.5t13.5 -50.5v-340h-80v35h-1q-11 -11 -28 -21q-14 -8 -34.5 -15t-46.5 -7q-30 0 -56.5 10t-46.5 27.5t-31.5 41.5t-11.5 52q0 27 11.5 50.5t31.5 41.5t46.5 28t56.5 10h109v87q0 18 -7 33.5t-19 27.5t-27.5 18.5t-33.5 6.5
q-26 0 -46 -13t-31 -34l-48 48q23 20 55 31.5t70 11.5zM255 209h-87q-18 0 -34 -7t-28 -18.5t-18.5 -27t-6.5 -33.5q0 -37 25.5 -62t61.5 -25q18 0 33.5 6.5t27.5 18.5t19 28t7 34v86zM140 559q-18 0 -25.5 -14t-9.5 -31h-52q0 16 4 33t12.5 31.5t22 24t33.5 10.5h3
q15 0 28 -6t25 -13.5t23.5 -13.5t23.5 -6q23 0 28.5 14t7.5 31h51q0 -16 -4 -33t-12.5 -31.5t-22 -24t-33.5 -10.5h-3q-15 0 -28 6t-25 13.5t-23.5 13.5t-23.5 6z" />
    <glyph glyph-name="ntilde" unicode="&#xf1;" horiz-adv-x="442" 
d="M38 514q0 16 3.5 33t12 31.5t22.5 24t34 10.5h3q15 0 28 -6t25 -13.5t23.5 -13.5t23.5 -6q23 0 28.5 14t7.5 31h51q0 -16 -4 -33t-12.5 -31.5t-22 -24t-33.5 -10.5h-3q-15 0 -28 6t-25 13.5t-23.5 13.5t-23.5 6q-18 0 -25.5 -14t-9.5 -31h-52zM337 0v340q0 27 -13.5 50.5
t-36 41t-53 28t-65.5 10.5t-65.5 -10.5t-53.5 -28t-36.5 -41t-13.5 -50.5v-340h82v340q0 36 25.5 61t61.5 25t61 -25t25 -61v-340h82z" />
    <glyph glyph-name="otilde" unicode="&#xf5;" horiz-adv-x="442" 
d="M127 559q-18 0 -25.5 -14t-9.5 -31h-52q0 16 4 33t12.5 31.5t22.5 24t34 10.5h3q15 0 28 -6t25 -13.5t23 -13.5t23 -6q23 0 28.5 14t7.5 31h52q0 -16 -4 -33t-13 -31.5t-22.5 -24t-33.5 -10.5h-3q-15 0 -28 6t-25 13.5t-23.5 13.5t-23.5 6zM169 470q35 0 65.5 -10.5
t53.5 -28t36 -41t13 -50.5v-217q0 -27 -13 -51t-36 -42t-53.5 -28t-65.5 -10t-65.5 10t-53.5 28t-36.5 42t-13.5 51v217q0 27 13.5 50.5t36.5 41t53.5 28t65.5 10.5zM255 340q0 36 -25 61t-61 25t-61.5 -25t-25.5 -61v-217q0 -36 25.5 -61.5t61.5 -25.5t61 25.5t25 61.5v217
z" />
    <glyph glyph-name="germandbls" unicode="&#xdf;" horiz-adv-x="545" 
d="M149 49h73q29 0 53.5 10.5t43.5 29t29.5 43.5t10.5 53t-10.5 53t-29.5 43.5t-43.5 29t-53.5 10.5h-40v49h27q28 0 53 10.5t43.5 29t29 43.5t10.5 53q0 29 -10.5 53.5t-29 43.5t-43.5 29.5t-53 10.5q-55 0 -89 -29.5t-34 -98.5v-515h-86v514q0 86 57 132t152 46
q45 0 85.5 -14.5t71 -39.5t48 -59t17.5 -73q0 -37 -12 -65.5t-28 -48t-32.5 -31t-25.5 -15.5q8 -4 26.5 -15.5t37.5 -31.5t33.5 -48t14.5 -66t-17.5 -72t-47.5 -59t-70.5 -39.5t-87.5 -14.5h-73v49z" />
    <glyph glyph-name="degree" unicode="&#xb0;" horiz-adv-x="250" 
d="M72 700q31 0 52 -21.5t21 -51.5t-21 -51.5t-52 -21.5q-30 0 -51 21.5t-21 51.5t21 51.5t51 21.5zM72 581q20 0 33 13.5t13 32.5t-13 32.5t-33 13.5q-19 0 -32 -13.5t-13 -32.5t13 -32.5t32 -13.5z" />
    <glyph glyph-name="asterisk" unicode="*" horiz-adv-x="293" 
d="M112 594v-3l41 -62l-24 -14l-34 68h-2l-34 -68l-24 14l41 62v3l-76 -4v27l76 -4v3l-41 62l24 14l34 -68h2l34 68l24 -14l-41 -62v-3l76 4v-27z" />
    <glyph glyph-name="agrave" unicode="&#xe0;" horiz-adv-x="441" 
d="M168 469q-38 0 -70 -11.5t-55 -31.5l48 -48q11 21 31.5 34.5t45.5 13.5q36 0 61.5 -25.5t25.5 -61.5v-87h-108q-30 0 -56.5 -10t-47 -27.5t-32 -41.5t-11.5 -51t11.5 -51t32 -41.5t47 -27.5t56.5 -10q26 0 46 6.5t34 14.5q16 10 28 21h2v-34h79v339q0 27 -13.5 50.5
t-36 41.5t-53 28t-65.5 10zM255 122q0 -18 -7 -34t-19 -28t-27.5 -18.5t-33.5 -6.5t-33.5 7t-27.5 18.5t-19 27.5t-7 34t7 33.5t18.5 27.5t27.5 19t34 7h87v-87zM81 620h94l76 -109h-44z" />
    <glyph glyph-name="aacute" unicode="&#xe1;" horiz-adv-x="441" 
d="M168 469q35 0 65.5 -10t53 -28t36 -41.5t13.5 -50.5v-339h-80v34h-1q-11 -11 -28 -21q-14 -8 -34.5 -14.5t-46.5 -6.5q-30 0 -56.5 10t-46.5 27.5t-31.5 41.5t-11.5 51t11.5 51t31.5 41.5t46.5 27.5t56.5 10h109v87q0 18 -7 34t-19 27.5t-27.5 18.5t-33.5 7
q-26 0 -46.5 -13.5t-31.5 -34.5l-47 48q23 20 55 31.5t70 11.5zM255 209h-87q-18 0 -34 -7t-28 -19t-18.5 -27.5t-6.5 -33.5q0 -36 25.5 -61.5t61.5 -25.5q18 0 33.5 6.5t27.5 18.5t19 28t7 34v87zM124 511h-43l76 109h93z" />
    <glyph glyph-name="acute" unicode="&#xb4;" horiz-adv-x="274" 
d="M43 511h-43l76 109h93z" />
    <glyph glyph-name="ograve" unicode="&#xf2;" horiz-adv-x="442" 
d="M66 620h93l76 -108h-44zM169 469q-35 0 -65.5 -10t-53.5 -28t-36.5 -41.5t-13.5 -50.5v-217q0 -27 13.5 -50.5t36.5 -41.5t53.5 -28t65.5 -10t65.5 10t53.5 28t36 41.5t13 50.5v217q0 27 -13 50.5t-36 41.5t-53.5 28t-65.5 10zM255 122q0 -36 -25 -61.5t-61 -25.5
t-61.5 25.5t-25.5 61.5v217q0 36 25.5 61.5t61.5 25.5t61 -25.5t25 -61.5v-217z" />
    <glyph glyph-name="oacute" unicode="&#xf3;" horiz-adv-x="442" 
d="M142 512h-44l76 108h93zM169 469q35 0 65.5 -10t53.5 -28t36 -41.5t13 -50.5v-217q0 -27 -13 -50.5t-36 -41.5t-53.5 -28t-65.5 -10t-65.5 10t-53.5 28t-36.5 41.5t-13.5 50.5v217q0 27 13.5 50.5t36.5 41.5t53.5 28t65.5 10zM256 339q0 36 -25.5 61.5t-61.5 25.5
t-61.5 -25.5t-25.5 -61.5v-217q0 -36 25.5 -61.5t61.5 -25.5t61.5 25.5t25.5 61.5v217z" />
    <glyph glyph-name="ocircumflex" unicode="&#xf4;" horiz-adv-x="442" 
d="M91 512h-44l76 108h82l76 -108h-43l-74 77zM169 469q35 0 65.5 -10t53 -28t36 -41.5t13.5 -50.5v-217q0 -27 -13.5 -50.5t-36 -41.5t-53 -28t-65.5 -10t-65.5 10t-53.5 28t-36.5 41.5t-13.5 50.5v217q0 27 13.5 50.5t36.5 41.5t53.5 28t65.5 10zM255 339q0 36 -25 61.5
t-61 25.5t-61.5 -25.5t-25.5 -61.5v-217q0 -36 25.5 -61.5t61.5 -25.5t61 25.5t25 61.5v217z" />
    <glyph glyph-name="grave" unicode="`" horiz-adv-x="249" 
d="M0 620h93l76 -108h-44z" />
    <glyph glyph-name="circumflex" unicode="&#x2c6;" horiz-adv-x="339" 
d="M44 512h-44l76 108h82l76 -108h-43l-74 77z" />
    <glyph glyph-name="igrave" unicode="&#xec;" horiz-adv-x="189" 
d="M96 512l-126 108h93l76 -108h-43zM107 0h-82v461h82v-461z" />
    <glyph glyph-name="iacute" unicode="&#xed;" horiz-adv-x="219" 
d="M43 512h-43l76 108h93zM33 461h82v-461h-82v461z" />
    <glyph glyph-name="idieresis" unicode="&#xef;" horiz-adv-x="243" 
d="M57 566q0 -18 -12.5 -30.5t-30.5 -12.5t-31 12.5t-13 30.5t13 31t31 13t30.5 -13t12.5 -31zM150 610q18 0 30.5 -13t12.5 -31t-12.5 -30.5t-30.5 -12.5t-31 12.5t-13 30.5t13 31t31 13zM41 461h81v-461h-81v461z" />
    <glyph glyph-name="backslash" unicode="\" horiz-adv-x="392" 
d="M0 700h54l258 -708h-54z" />
    <glyph glyph-name="slash" unicode="/" horiz-adv-x="352" 
d="M54 -8h-54l257 708h55z" />
    <glyph glyph-name="ampersand" unicode="&#x26;" horiz-adv-x="584" 
d="M402 0q-5 6 -10 13q-5 6 -11.5 15t-14.5 20q-59 -56 -154 -56q-46 0 -85 14.5t-67 39.5t-44 59t-16 72q0 42 10.5 74t28 56.5t40.5 43.5t47 35q-16 25 -29.5 44t-23.5 35.5t-16.5 32t-9.5 32.5q-1 6 -1.5 12.5t-0.5 12.5q0 32 12 58.5t33.5 45.5t50 30t61.5 11
q29 0 57 -10t50 -28t35.5 -44t13.5 -58v-2q-1 -37 -12 -64.5t-28 -49t-39 -38.5t-44 -33l-11 -8q30 -44 67.5 -93t69.5 -93q8 32 13.5 68t5.5 74h80q0 -66 -16 -121t-33 -92q31 -41 53 -69t30 -39h-92zM117 553q0 -22 15 -48.5t41 -64.5q2 -4 5 -7.5t6 -8.5q18 12 36.5 25
t33 28.5t24 34t9.5 41.5v2q0 22 -7 38.5t-19 27.5t-27.5 17.5t-31.5 7.5q-42 0 -63.5 -28.5t-21.5 -64.5zM212 46q38 0 62.5 16.5t49.5 42.5q-35 48 -76.5 105t-80.5 114q-17 -12 -33.5 -26t-29.5 -31.5t-21 -39.5t-8 -50t11 -52.5t29.5 -41.5t43.5 -27t53 -10z" />
    <glyph glyph-name="zcaron" unicode="&#x17e;" horiz-adv-x="433" 
d="M328 0v43h-247v79q0 33 17.5 49t44.5 25t57.5 15t57.5 19.5t44.5 38.5t17.5 70v122h-320v-43h239v-79q0 -32 -17.5 -49t-44.5 -27t-57.5 -17t-57.5 -20t-44.5 -37t-17.5 -67v-122h328zM270 620l-76 -108h-82l-76 108h43l74 -77l74 77h43z" />
    <glyph glyph-name="aring" unicode="&#xe5;" horiz-adv-x="441" 
d="M168 469q35 0 65.5 -10t53 -28t36 -41.5t13.5 -50.5v-339h-80v34h-1q-11 -11 -28 -21q-14 -8 -34.5 -14.5t-46.5 -6.5q-30 0 -56.5 10t-46.5 27.5t-31.5 41.5t-11.5 51t11.5 51t31.5 41.5t46.5 27.5t56.5 10h109v87q0 18 -7 34t-19 27.5t-27.5 18.5t-33.5 7
q-26 0 -46 -13t-31 -35l-48 48q23 20 55 31.5t70 11.5zM255 209h-87q-18 0 -34 -7t-27.5 -19t-18.5 -27.5t-7 -33.5q0 -36 25.5 -61.5t61.5 -25.5q18 0 33.5 6.5t27.5 18.5t19 28t7 34v87zM184 512q-23 0 -39 15.5t-16 38.5t16 38.5t39 15.5q22 0 38 -15.5t16 -38.5
t-16 -38.5t-38 -15.5zM184 598q-14 0 -23.5 -9t-9.5 -23t9.5 -23.5t23.5 -9.5q13 0 22.5 9.5t9.5 23.5t-9.5 23t-22.5 9z" />
    <glyph glyph-name="yacute" unicode="&#xfd;" horiz-adv-x="442" 
d="M337 461v-599q0 -27 -13 -51t-36 -41.5t-53.5 -28t-65.5 -10.5t-66 10.5t-54 28t-36 41.5t-13 51h82q0 -37 25.5 -62t61.5 -25t61.5 25t25.5 62v171h-2q-12 -11 -28 -20q-14 -8 -33.5 -14.5t-45.5 -6.5q-30 0 -57 10t-47 28t-31.5 41.5t-11.5 50.5v339h82v-339
q0 -18 6.5 -33.5t18.5 -27.5t28 -19t34 -7t34 7t28 19t18.5 27.5t6.5 33.5v339h81zM131 512h-44l76 108h93z" />
    <glyph glyph-name="ydieresis" unicode="&#xff;" horiz-adv-x="442" 
d="M0 122q0 -27 11.5 -50.5t31.5 -41.5t47 -28t57 -10q26 0 45.5 6.5t33.5 14.5q16 9 28 20h1v-171q0 -37 -25.5 -62t-61.5 -25q-18 0 -33.5 6.5t-27 18.5t-18.5 28t-7 34h-82q0 -27 13 -51t36 -41.5t53.5 -28t65.5 -10.5t65.5 10.5t53.5 28t36.5 41.5t13.5 51v599h-82v-339
q0 -18 -6.5 -33.5t-18.5 -27.5t-28 -19t-34 -7t-33.5 7t-27.5 19t-18.5 27.5t-6.5 33.5v339h-82v-339zM138 566q0 -18 -12.5 -30.5t-30.5 -12.5t-30.5 12.5t-12.5 30.5t12.5 31t30.5 13t30.5 -13t12.5 -31zM275 566q0 -18 -13 -30.5t-31 -12.5t-30.5 12.5t-12.5 30.5
t12.5 31t30.5 13t31 -13t13 -31z" />
    <glyph glyph-name="scaron" unicode="&#x161;" horiz-adv-x="441" 
d="M112 512l-76 108h43l74 -77l73 77h44l-76 -108h-82zM86 339q0 -32 18.5 -48.5t46.5 -25.5t60 -16t60 -20t46.5 -37.5t18.5 -69.5q0 -27 -13 -50.5t-36 -41.5t-53.5 -28t-65.5 -10t-65.5 10t-53.5 28t-36 41.5t-13 50.5h81q0 -37 25.5 -62t61.5 -25q18 0 33.5 6.5
t27.5 18.5t19 28t7 34q0 32 -18 49t-44.5 27t-57.5 17t-57.5 20.5t-44.5 37t-18 66.5q0 27 11.5 50.5t32.5 41t50 28t64 10.5q27 0 48.5 -5.5t38 -13.5t27.5 -16t17 -14l-50 -50q-2 7 -8 16.5t-16 18.5t-24 15t-33 6q-18 0 -34 -7t-28 -19t-18.5 -27.5t-6.5 -33.5z" />
    <glyph glyph-name="periodcentered" unicode="&#xb7;" horiz-adv-x="203" 
d="M98 309q0 -20 -14.5 -34t-34.5 -14t-34.5 14t-14.5 34t14.5 34.5t34.5 14.5t34.5 -14.5t14.5 -34.5z" />
    <glyph glyph-name="bullet" unicode="&#x2022;" horiz-adv-x="260" 
d="M145 306q0 -30 -21 -51t-51 -21q-31 0 -52 21t-21 51q0 31 21 52t52 21q30 0 51 -21t21 -52z" />
    <glyph glyph-name="questiondown" unicode="&#xbf;" horiz-adv-x="513" 
d="M266 217q0 -35 -13.5 -64.5t-33.5 -55.5t-43 -49t-43 -44.5t-33.5 -43t-13.5 -44.5q0 -27 10.5 -52t28.5 -43.5t43 -29.5t54 -11q30 0 52.5 10t39 25t26 32.5t13.5 31.5q3 -3 12 -11.5t19 -18.5l18 -18l11 -11l-2 -2q-4 -5 -17 -19.5t-36.5 -29.5t-57 -26.5t-78.5 -11.5
q-46 0 -86.5 14.5t-70.5 39.5t-47.5 59t-17.5 72q0 36 13.5 63.5t33 50.5t43 43.5t43 43.5t33 49.5t13.5 61.5v32h87v-43zM271 420q0 -20 -14.5 -34t-34.5 -14t-34 14t-14 34t14 34.5t34 14.5t34.5 -14.5t14.5 -34.5z" />
    <glyph glyph-name="exclamdown" unicode="&#xa1;" horiz-adv-x="213" 
d="M98 420q0 -20 -14.5 -34t-34.5 -14t-34.5 14t-14.5 34t14.5 34.5t34.5 14.5t34.5 -14.5t14.5 -34.5zM6 252h86v-513h-86v513z" />
    <glyph glyph-name="AE" unicode="&#xc6;" horiz-adv-x="798" 
d="M403 643v-273h273v-49h-273v-272h305v-49h-391v209h-231v-209h-86v515q0 38 17.5 71.5t47.5 59t70.5 40t86.5 14.5q14 0 39 -1.5t57 -6.5h390v-49h-305zM317 258v382q-15 5 -40.5 8t-54.5 3q-28 0 -53 -10.5t-43.5 -29t-29 -43.5t-10.5 -53v-257h231z" />
    <glyph glyph-name="OE" unicode="&#x152;" horiz-adv-x="823" 
d="M404 643v-273h272v-49h-272v-272h304v-49h-390q-4 -1 -14 -2t-23.5 -2.5t-29 -2.5t-29.5 -1q-46 0 -86.5 14.5t-70.5 39.5t-47.5 59t-17.5 72v338q0 38 17.5 72t47.5 59t70.5 39.5t86.5 14.5q14 0 29.5 -1t29 -2.5t23.5 -2.5t14 -2h390v-49h-304zM86 175q0 -28 11 -52.5
t29.5 -42.5t43 -28.5t52.5 -10.5q10 0 23.5 0.5t27.5 2t26 3.5t19 4v589q-7 3 -19 5t-26 3.5t-27.5 2t-23.5 0.5q-28 0 -52.5 -10.5t-43 -29t-29.5 -43t-11 -52.5v-341v0z" />
    <glyph glyph-name="section" unicode="&#xa7;" horiz-adv-x="465" 
d="M250 235q19 -6 36 -15t30 -22t20.5 -31.5t7.5 -44.5q0 -27 -13 -50.5t-35.5 -41t-53.5 -28t-66 -10.5q-27 0 -51 2.5t-43 6.5q-22 4 -41 9l16 53q20 -4 41 -8q18 -3 38.5 -6t39.5 -3q37 0 62 20.5t25 55.5q0 33 -19.5 49t-48.5 25t-63.5 16t-63.5 20t-48.5 37.5
t-19.5 69.5q0 39 29 70.5t74 47.5q-18 6 -34.5 15t-29 22t-19.5 31.5t-7 44.5t12.5 49.5t34 41.5t51.5 28.5t65 10.5q28 0 48 -3t34 -7q16 -4 27 -11l-11 -50q-14 5 -30 9q-14 3 -31.5 5.5t-36.5 2.5q-37 0 -62 -20.5t-25 -55.5q0 -33 19.5 -49.5t48.5 -25.5t62.5 -15.5
t62.5 -19.5t48.5 -37.5t19.5 -69.5q0 -39 -28 -70.5t-72 -47.5zM78 339q0 -36 23.5 -53t58.5 -27q4 -1 12 -1q19 0 36 8.5t30.5 22t21.5 30.5t8 34q0 35 -21 51.5t-52 26.5q-5 1 -9 1.5t-9 0.5q-22 0 -40 -8.5t-31 -22t-20.5 -30t-7.5 -33.5z" />
    <glyph glyph-name="ellipsis" unicode="&#x2026;" horiz-adv-x="712" 
d="M49 89q20 0 34.5 -14t14.5 -34t-14.5 -34.5t-34.5 -14.5t-34.5 14.5t-14.5 34.5t14.5 34t34.5 14zM299 89q20 0 34.5 -14t14.5 -34t-14.5 -34.5t-34.5 -14.5t-34.5 14.5t-14.5 34.5t14.5 34t34.5 14zM549 89q20 0 34 -14t14 -34t-14 -34.5t-34 -14.5t-34.5 14.5
t-14.5 34.5t14.5 34t34.5 14z" />
    <glyph glyph-name="quotedblbase" unicode="&#x201e;" horiz-adv-x="372" 
d="M69 90q20 0 34.5 -14.5t14.5 -34.5q0 -15 -10 -30l-67 -86h-41l44 75q-23 13 -23 41q0 20 14 34.5t34 14.5zM267 41q0 -17 -10 -30l-67 -86h-41l44 75q-23 13 -23 41q0 20 14.5 34.5t34.5 14.5t34 -14.5t14 -34.5z" />
    <glyph glyph-name="quotesinglbase" unicode="&#x201a;" horiz-adv-x="223" 
d="M118 41q0 -15 -10 -30l-67 -86h-41l44 75q-11 6 -17.5 17t-6.5 24q0 20 14.5 34.5t34.5 14.5t34.5 -14.5t14.5 -34.5z" />
    <glyph glyph-name="period" unicode="." horiz-adv-x="202" 
d="M97 41q0 -20 -14.5 -34.5t-34.5 -14.5t-34 14.5t-14 34.5t14 34.5t34 14.5t34.5 -14.5t14.5 -34.5z" />
    <glyph glyph-name="comma" unicode="," horiz-adv-x="223" 
d="M118 41q0 -15 -10 -30l-67 -86h-41l44 75q-11 6 -17.5 17t-6.5 24q0 20 14.5 34.5t34.5 14.5t34.5 -14.5t14.5 -34.5z" />
    <glyph glyph-name="colon" unicode=":" horiz-adv-x="203" 
d="M98 41q0 -20 -14.5 -34.5t-34.5 -14.5t-34.5 14.5t-14.5 34.5t14.5 34t34.5 14t34.5 -14t14.5 -34zM98 420q0 -20 -14.5 -34t-34.5 -14t-34.5 14t-14.5 34t14.5 34.5t34.5 14.5t34.5 -14.5t14.5 -34.5z" />
    <glyph glyph-name="semicolon" unicode=";" horiz-adv-x="224" 
d="M117 420q0 -20 -14 -34t-34 -14t-34.5 14t-14.5 34t14.5 34.5t34.5 14.5t34 -14.5t14 -34.5zM119 40q0 20 -14.5 34.5t-34.5 14.5t-34.5 -14.5t-14.5 -34.5q0 -27 23 -42l-44 -74h41l67 86q11 13 11 30z" />
    <glyph glyph-name="quoteleft" unicode="&#x2018;" horiz-adv-x="223" 
d="M0 583q0 17 10 30l67 87h41l-44 -75q11 -7 17.5 -17.5t6.5 -24.5q0 -20 -14.5 -34t-34.5 -14t-34.5 14t-14.5 34z" />
    <glyph glyph-name="quoteright" unicode="&#x2019;" horiz-adv-x="224" 
d="M119 651q0 -17 -11 -30l-67 -86h-41l44 75q-23 13 -23 41q0 20 14.5 34.5t34.5 14.5t34.5 -14.5t14.5 -34.5z" />
    <glyph glyph-name="quotedblleft" unicode="&#x201c;" horiz-adv-x="372" 
d="M198 535q-20 0 -34.5 14t-14.5 34q0 17 10 30l67 87h41l-43 -75q10 -7 16.5 -17.5t6.5 -24.5q0 -20 -14.5 -34t-34.5 -14zM0 583q0 17 10 30l67 87h41l-44 -75q11 -7 17.5 -17.5t6.5 -24.5q0 -20 -14.5 -34t-34.5 -14t-34.5 14t-14.5 34z" />
    <glyph glyph-name="quotedblright" unicode="&#x201d;" horiz-adv-x="372" 
d="M69 700q20 0 34.5 -14.5t14.5 -34.5q0 -17 -10 -30l-67 -86h-41l44 75q-23 13 -23 41q0 20 14 34.5t34 14.5zM267 651q0 -19 -10 -30l-67 -86h-41l44 75q-23 13 -23 41q0 20 14.5 34.5t34.5 14.5t34 -14.5t14 -34.5z" />
    <glyph glyph-name="quotedbl" unicode="&#x22;" horiz-adv-x="372" 
d="M69 700q20 0 34.5 -14.5t14.5 -34.5q0 -17 -10 -30l-67 -86h-41l44 75q-23 13 -23 41q0 20 14 34.5t34 14.5zM267 651q0 -19 -10 -30l-67 -86h-41l44 75q-23 13 -23 41q0 20 14.5 34.5t34.5 14.5t34 -14.5t14 -34.5z" />
    <glyph glyph-name="quotesingle" unicode="'" horiz-adv-x="224" 
d="M119 651q0 -17 -11 -30l-67 -86h-41l44 75q-23 13 -23 41q0 20 14.5 34.5t34.5 14.5t34.5 -14.5t14.5 -34.5z" />
    <glyph glyph-name="exclam" unicode="!" horiz-adv-x="203" 
d="M98 41q0 -20 -14.5 -34.5t-34.5 -14.5t-34.5 14.5t-14.5 34.5t14.5 34t34.5 14t34.5 -14t14.5 -34zM6 730h86v-521h-86v521z" />
    <glyph glyph-name="question" unicode="?" horiz-adv-x="502" 
d="M132 252q0 35 13.5 64.5t33 55.5t43 49t43 44.5t33 43t13.5 44.5q0 27 -10.5 52t-28.5 43.5t-43 29.5t-54 11q-30 0 -52.5 -10t-39 -25t-26 -32.5t-13.5 -31.5q-3 3 -12 11.5t-18.5 18.5t-18 18t-10.5 11q1 2 13 16t35 30.5t58.5 29.5t83.5 13q46 0 86.5 -14.5
t70.5 -39.5t47.5 -59t17.5 -72q0 -36 -13.5 -63t-33 -50t-43 -44t-43 -43.5t-33 -49.5t-13.5 -62v-32h-86v43zM126 41q0 -20 14.5 -34.5t34.5 -14.5t34.5 14.5t14.5 34.5t-14.5 34t-34.5 14t-34.5 -14t-14.5 -34z" />
    <glyph glyph-name="logicalnot" unicode="&#xac;" horiz-adv-x="666" 
d="M561 362v-255h-49v206h-512v49h561z" />
    <glyph glyph-name="asciitilde" unicode="~" horiz-adv-x="617" 
d="M473 393l39 -11q-23 -49 -62 -77.5t-81 -28.5q-8 0 -15.5 1t-15.5 3l-183 54q-10 3 -23 3q-29 0 -55.5 -16t-37.5 -41l-39 12q23 49 62 77.5t81 28.5q8 0 15.5 -1t15.5 -3l183 -55q11 -3 23 -3q29 0 55.5 16.5t37.5 40.5z" />
    <glyph glyph-name="plusminus" unicode="&#xb1;" horiz-adv-x="617" 
d="M0 49h512v-49h-512v49zM512 362v-49h-232v-215h-49v215h-231v49h231v215h49v-215h232z" />
    <glyph glyph-name="less" unicode="&#x3c;" horiz-adv-x="617" 
d="M512 458l-458 -209l458 -208v-49l-512 233v49l512 233v-49z" />
    <glyph glyph-name="equal" unicode="=" horiz-adv-x="617" 
d="M0 199h512v-49h-512v49zM512 362v-49h-512v49h512zM512 362v-49h-512v49h512z" />
    <glyph glyph-name="greater" unicode="&#x3e;" horiz-adv-x="617" 
d="M0 507l512 -233v-49l-512 -233v49l458 208l-458 209v49z" />
    <glyph glyph-name="plus" unicode="+" horiz-adv-x="617" 
d="M512 231h-231v-231h-49v231h-232v49h232v232h49v-232h231v-49z" />
    <glyph glyph-name="multiply" unicode="&#xd7;" horiz-adv-x="477" 
d="M362 58l-164 163l-163 -163l-35 34l164 164l-164 163l35 35l163 -164l164 164l35 -35l-164 -163l164 -164z" />
    <glyph glyph-name="divide" unicode="&#xf7;" horiz-adv-x="617" 
d="M0 231v49h512v-49h-512zM256 159q20 0 34.5 -14.5t14.5 -34.5t-14.5 -34.5t-34.5 -14.5t-34.5 14.5t-14.5 34.5t14.5 34.5t34.5 14.5zM256 351q-20 0 -34.5 14.5t-14.5 34.5t14.5 34.5t34.5 14.5t34.5 -14.5t14.5 -34.5t-14.5 -34.5t-34.5 -14.5z" />
    <glyph glyph-name="numbersign" unicode="#" horiz-adv-x="595" 
d="M375 360l-23 -114h95v-48h-104l-38 -198h-49l38 198h-133l-39 -198h-49l39 198h-112v48h121l22 114h-99v49h109l38 195h49l-38 -195h133l38 195h49l-38 -195h106v-49h-115zM326 360h-134l-22 -114h134z" />
    <glyph glyph-name="florin" unicode="&#x192;" horiz-adv-x="471" 
d="M369 695q-17 0 -34 -6.5t-30.5 -18.5t-22.5 -28t-12 -34q-3 -23 -7 -55.5t-9 -62.5q-5 -35 -10 -72h87l-7 -43h-86l-51 -361q-4 -27 -20.5 -51t-42 -42t-57.5 -28t-67 -10l6 44q18 0 34.5 6.5t30.5 18.5t23 28t12 34l83 594q4 27 20.5 50.5t42 41.5t57.5 28t67 10l-7 -43
v0z" />
    <glyph glyph-name="ae" unicode="&#xe6;" horiz-adv-x="696" 
d="M423 35q36 0 61.5 25.5t25.5 61.5h81q0 -27 -13 -50.5t-36 -41.5t-53.5 -28t-65.5 -10q-51 0 -92 21t-61 55h-1q-7 -13 -17 -27t-25 -24.5t-35 -17.5t-46 -7q-30 0 -56.5 10t-46.5 27.5t-31.5 41.5t-11.5 51t11.5 51t31.5 41.5t46.5 27.5t56.5 10h109v87q0 36 -25.5 61.5
t-61.5 25.5q-26 0 -46 -13t-31 -35l-48 48q23 20 55 31.5t70 11.5t71.5 -12t56.5 -33q23 21 56 33t71 12q35 0 65.5 -10t53.5 -28t36 -41.5t13 -50.5t-13.5 -51t-36.5 -41.5t-53.5 -27.5t-64.5 -10h-87v-87q0 -18 7 -34t19 -28t27.5 -18.5t33.5 -6.5zM336 252h87
q36 0 61.5 25.5t25.5 61.5t-25 61.5t-62 25.5q-18 0 -34 -7t-27.5 -19t-18.5 -27.5t-7 -33.5v-87zM255 209h-87q-18 0 -34 -7t-27.5 -19t-18.5 -27.5t-7 -33.5t7 -34t19 -27.5t27.5 -18.5t33.5 -7t33.5 6.5t27.5 18.5t19 28t7 34v87z" />
    <glyph glyph-name="oe" unicode="&#x153;" horiz-adv-x="696" 
d="M423 35q36 0 61.5 25.5t25.5 61.5h81q0 -27 -13 -50.5t-36 -41.5t-53.5 -28t-65.5 -10q-38 0 -71.5 12t-56.5 33q-23 -21 -56 -33t-71 -12q-35 0 -65.5 10t-53.5 28t-36 41.5t-13 50.5v217q0 27 13 50.5t36 41.5t53.5 28t65.5 10q38 0 71 -12t56 -33q23 21 56.5 33
t71.5 12q35 0 65.5 -10t53.5 -28t36 -41.5t13 -50.5t-13.5 -51t-36.5 -41.5t-53.5 -27.5t-64.5 -10h-87v-87q0 -18 7 -34t19 -28t27.5 -18.5t33.5 -6.5zM423 426q-18 0 -34 -7t-28 -19t-18.5 -27.5t-6.5 -33.5v-87h87q36 0 61.5 25.5t25.5 61.5t-25.5 61.5t-61.5 25.5z
M168 35q36 0 61.5 25.5t25.5 61.5v217q0 36 -25.5 61.5t-61.5 25.5t-61.5 -25.5t-25.5 -61.5v-217q0 -36 25.5 -61.5t61.5 -25.5z" />
    <glyph glyph-name="dagger" unicode="&#x2020;" horiz-adv-x="477" 
d="M372 418h-162v-418h-47v418h-163v43h163v231h47v-231h162v-43z" />
    <glyph glyph-name="daggerdbl" unicode="&#x2021;" horiz-adv-x="477" 
d="M209 418v-144h163v-43h-163v-231h-46v231h-163v43h163v144h-163v43h163v231h46v-231h163v-43h-163z" />
    <glyph glyph-name="trademark" unicode="&#x2122;" horiz-adv-x="826" 
d="M0 692h246v-27h-99v-356h-48v356h-99v27zM721 309h-48v286q0 31 -22 52.5t-53 21.5q-32 0 -53.5 -21.5t-21.5 -53.5v-285h-48v286q0 31 -22 52.5t-53 21.5q-32 0 -54 -21.5t-22 -53.5v-285h-47v286q0 21 9.5 39.5t26.5 32t39.5 21.5t47.5 8q30 0 56 -11t43 -31
q17 20 42.5 31t56.5 11q26 0 48 -8t39 -21.5t26.5 -32t9.5 -39.5v-286z" />
    <glyph glyph-name="registered" unicode="&#xae;" horiz-adv-x="823" 
d="M432 349q12 -6 24.5 -15.5t23 -22t17 -28.5t6.5 -36v-116h-55v116q0 18 -6.5 33.5t-18 27t-27.5 18.5t-34 7h-85v-202h-55v436h132q29 0 54.5 -9.5t44.5 -25t30 -37t11 -45.5q0 -32 -15 -59t-47 -42zM354 364q18 0 33.5 7t27.5 18.5t18.5 27t6.5 33.5t-6.5 33.5t-18.5 27
t-27.5 18.5t-33.5 7h-77v-172h77zM354 700q74 0 138.5 -28t112.5 -76t75.5 -112.5t27.5 -137.5t-27.5 -137.5t-75.5 -112.5t-112.5 -76t-138.5 -28q-73 0 -137.5 28t-112.5 76t-76 112.5t-28 137.5t28 137.5t76 112.5t112.5 76t137.5 28zM354 35q63 0 119 24.5t97 66.5
t65 99t24 121t-24 120.5t-65 98.5t-97 66.5t-119 24.5t-118.5 -24.5t-97 -66.5t-65.5 -98.5t-24 -120.5t24 -121t65.5 -99t97 -66.5t118.5 -24.5z" />
    <glyph glyph-name="copyright" unicode="&#xa9;" horiz-adv-x="823" 
d="M348 536q-36 0 -61 -25t-25 -61v-212q0 -18 7 -33.5t18.5 -27.5t27 -18.5t33.5 -6.5t33.5 6.5t27 18.5t18.5 27.5t7 33.5h54q0 -24 -11 -45.5t-30 -37.5t-44.5 -25t-54.5 -9t-55 9.5t-45 25t-30 37t-11 45.5v212q0 24 11 45.5t30 37.5t45 25t55 9t54.5 -9t44.5 -25
t30 -37.5t11 -45.5h-54q0 18 -6.5 33.5t-18.5 27t-27.5 18.5t-33.5 7zM354 700q74 0 138.5 -28t112.5 -76t75.5 -112.5t27.5 -137.5t-27.5 -137.5t-75.5 -112.5t-112.5 -76t-138.5 -28q-73 0 -137.5 28t-112.5 76t-76 112.5t-28 137.5t28 137.5t76 112.5t112.5 76t137.5 28z
M354 35q63 0 119 24.5t97 66.5t65 99t24 121t-24 120.5t-65 98.5t-97 66.5t-119 24.5t-118.5 -24.5t-97 -66.5t-65.5 -98.5t-24 -120.5t24 -121t65.5 -99t97 -66.5t118.5 -24.5z" />
    <glyph glyph-name="at" unicode="@" horiz-adv-x="798" 
d="M359 47q35 0 72 6.5t71.5 20.5t64.5 35t51 50v-69q-51 -48 -120.5 -73t-138.5 -25q-80 0 -146 26.5t-113.5 73.5t-73.5 111.5t-26 140.5t28 141t76 113t112 75t136 27q67 0 126 -22t103 -61.5t69.5 -93.5t25.5 -118q0 -58 -21 -108t-53.5 -87t-71.5 -57.5t-75 -20.5
q-20 0 -36.5 11t-22.5 34h-2q-12 -11 -30 -21q-15 -8 -35.5 -14.5t-46.5 -6.5q-27 0 -50 8.5t-40.5 23.5t-27 35.5t-9.5 44.5v8t1 8q4 27 18.5 50.5t36.5 40.5t49.5 27t57.5 10h106l11 78q1 4 1 12q0 32 -21 52.5t-53 20.5q-25 0 -47 -12.5t-36 -33.5l-40 47q26 20 59 31
t70 11q32 0 59 -9t46.5 -24t31 -36t11.5 -45q0 -9 -1 -14q-3 -22 -8 -57t-10.5 -74l-11 -78t-9.5 -68h2q25 0 50 19t44.5 49.5t31.5 68.5t12 75q0 55 -22 99.5t-58 76t-83.5 48.5t-98.5 17q-62 0 -115.5 -24.5t-93 -65.5t-62 -96t-22.5 -115q0 -64 24 -118.5t64.5 -94.5
t94.5 -62t115 -22zM309 178q17 0 33.5 6.5t29.5 18t22 27t12 33.5q2 8 3.5 22t3.5 28q3 17 5 35h-85q-36 0 -64 -25t-33 -60q-1 -4 -1 -12q0 -31 21 -52t53 -21z" />
    <glyph glyph-name="yen" unicode="&#xa5;" horiz-adv-x="559" 
d="M346 353h67v-44h-148v-73h148v-44h-148v-192h-86v192h-146v44h146v73h-146v44h65v3q-43 25 -70.5 63.5t-27.5 85.5v187h86v-185q0 -28 10.5 -53t29 -44t43.5 -29.5t53 -10.5t53 10.5t43.5 29t29 43t10.5 52.5v187h86v-187q0 -47 -27.5 -85.5t-70.5 -63.5v-3z" />
    <glyph glyph-name="sterling" unicode="&#xa3;" horiz-adv-x="576" 
d="M423 49l-7 -49h-391l38 267h-63l6 43h63l36 252q4 27 21 50.5t44 41t60.5 28t70.5 10.5q35 0 64 -9t50.5 -25t33.5 -37.5t12 -45.5v-6.5t-1 -6.5h-86q1 4 1 12q0 32 -22.5 53t-57.5 21q-19 0 -36.5 -6.5t-32 -18.5t-23.5 -27.5t-12 -33.5q-2 -15 -7 -49.5t-10.5 -73.5
t-10.5 -75t-8 -54h231l-6 -43h-231l-31 -218h305z" />
    <glyph glyph-name="Euro" unicode="&#x20ac;" horiz-adv-x="582" 
d="M449 49l18 -49h-170q-46 0 -86.5 14.5t-70.5 40t-47 59t-17 71.5v82h-76l17 44h59v74h-76l17 44h59v78q0 38 17 71.5t47 59t70 40t86 14.5h171l-18 -49h-152q-28 0 -52.5 -11t-43 -29.5t-29 -43t-10.5 -52.5v-78h208l-16 -44h-192v-74h165l-15 -44h-150v-82
q0 -28 10.5 -52.5t28.5 -43t42.5 -29.5t52.5 -11h153z" />
    <glyph glyph-name="dollar" unicode="$" horiz-adv-x="525" 
d="M435 181q0 -35 -15 -66.5t-41.5 -55.5t-62.5 -39.5t-77 -18.5v-42h-44v42q-41 3 -76.5 18.5t-62 39.5t-41.5 55.5t-15 66.5h85q0 -25 8.5 -47.5t23.5 -39.5t35 -29t43 -16v284l-15 5q-33 11 -65.5 24t-58 32t-41 47t-15.5 70q0 35 15 66.5t41.5 55.5t62 39t76.5 19v47h44
v-47q42 -3 74 -16.5t54.5 -31.5t36 -37t18.5 -33l-74 -36q-3 16 -11 33t-22 32t-33 26t-43 14v-261q35 -13 70 -28.5t63 -38t45.5 -54.5t17.5 -79zM85 511q0 -22 8.5 -39.5t23.5 -31t35 -24t43 -19.5v245q-24 -4 -44 -16t-35 -29.5t-23 -39.5t-8 -46zM239 49q48 8 80 44.5
t32 87.5q0 29 -9 50t-24 37t-35.5 27.5t-43.5 21.5v-268v0z" />
    <glyph glyph-name="currency" unicode="&#xa4;" horiz-adv-x="502" 
d="M376 354q0 -30 -9 -57t-26 -49l56 -56l-35 -35l-55 56q-23 -17 -50.5 -27t-59.5 -10q-60 0 -107 36l-55 -55l-35 35l55 54q-36 47 -36 108q0 32 10 59.5t27 50.5l-56 55l35 35l56 -56q22 17 49 26t57 9q62 0 109 -36l56 57l35 -35l-57 -57q36 -47 36 -108zM64 354
q0 -27 10.5 -51t28.5 -42t42.5 -28.5t51.5 -10.5q28 0 52 10.5t42 28.5t28.5 42t10.5 51q0 28 -10.5 52t-28.5 42t-42 28.5t-52 10.5q-27 0 -51.5 -10.5t-42.5 -28.5t-28.5 -42t-10.5 -52z" />
    <glyph glyph-name="cent" unicode="&#xa2;" horiz-adv-x="403" 
d="M298 39q-12 -10 -28 -20q-14 -8 -34 -16t-46 -10v-56h-44v56q-31 3 -58 14.5t-46.5 28.5t-30.5 39.5t-11 46.5v217q0 25 11 47t30.5 39.5t46.5 28.5t58 14v56h44v-56q24 -2 42.5 -8.5t31.5 -13.5t20.5 -12.5t8.5 -7.5l-9 -9l-15.5 -15.5t-15 -15.5t-7.5 -8
q-4 8 -17.5 23.5t-38.5 21.5v-385q25 6 39.5 22.5t18.5 27.5zM82 122q0 -31 18 -53.5t46 -30.5v385q-28 -8 -46 -31t-18 -53v-217v0z" />
    <glyph glyph-name="percent" unicode="%" horiz-adv-x="752" 
d="M507 367q29 0 54.5 -9t44.5 -24t30 -35t11 -43v-151q0 -23 -11 -43t-30 -35t-44.5 -23.5t-54.5 -8.5t-54.5 8.5t-44.5 23.5t-30 35t-11 43v151q0 23 11 43t30 35t44.5 24t54.5 9zM593 256q0 17 -7 32t-18.5 26t-27 17.5t-33.5 6.5t-33.5 -6.5t-27 -17.5t-18.5 -25.5
t-7 -31.5v-151q0 -17 7 -32t18.5 -26t27 -17.5t33.5 -6.5t33.5 6.5t27 17.5t18.5 25.5t7 31.5v151zM140 700q29 0 54.5 -9t44.5 -24t30 -35t11 -43v-151q0 -23 -11 -43t-30 -35t-44.5 -23.5t-54.5 -8.5t-54.5 8.5t-44.5 23.5t-30 35t-11 43v151q0 23 11 43t30 35t44.5 24
t54.5 9zM226 589q0 17 -7 32t-18.5 26t-27 17.5t-33.5 6.5t-33.5 -6.5t-27 -17.5t-18.5 -25.5t-7 -31.5v-151q0 -34 25 -58t61 -24q18 0 33.5 6.5t27 17.5t18.5 25.5t7 31.5v151zM185 0h-43l322 692h44z" />
    <glyph glyph-name="perthousand" unicode="&#x2030;" horiz-adv-x="1083" 
d="M837 367q29 0 55 -9t45 -24t30 -35t11 -43v-151q0 -23 -11 -43t-30.5 -35t-45 -23.5t-54.5 -8.5t-54.5 8.5t-44.5 23.5t-30 35t-11 43v151q0 23 11 43t30 35t44.5 24t54.5 9zM923 256q0 34 -25 58t-61 24q-18 0 -33.5 -6.5t-27 -17.5t-18.5 -25.5t-7 -31.5v-151
q0 -17 7 -32t18.5 -26t27 -17.5t33.5 -6.5q36 0 61 23.5t25 57.5v151zM507 367q29 0 54.5 -9t44.5 -24t30 -35t11 -43v-151q0 -23 -11 -43t-30 -35t-44.5 -23.5t-54.5 -8.5t-54.5 8.5t-44.5 23.5t-30 35t-11 43v151q0 23 11 43t30 35t44.5 24t54.5 9zM593 256q0 17 -7 32
t-18.5 26t-27 17.5t-33.5 6.5t-33.5 -6.5t-27 -17.5t-18.5 -25.5t-7 -31.5v-151q0 -17 7 -32t18.5 -26t27 -17.5t33.5 -6.5t33.5 6.5t27 17.5t18.5 25.5t7 31.5v151zM140 700q29 0 54.5 -9t44.5 -24t30 -35t11 -43v-151q0 -23 -11 -43t-30 -35t-44.5 -23.5t-54.5 -8.5
t-54.5 8.5t-44.5 23.5t-30 35t-11 43v151q0 23 11 43t30 35t44.5 24t54.5 9zM226 589q0 17 -7 32t-18.5 26t-27 17.5t-33.5 6.5t-33.5 -6.5t-27 -17.5t-18.5 -25.5t-7 -31.5v-151q0 -34 25 -58t61 -24q18 0 33.5 6.5t27 17.5t18.5 25.5t7 31.5v151zM185 0h-43l322 692h44z
" />
    <glyph glyph-name="twosuperior" unicode="&#xb2;" horiz-adv-x="385" 
d="M280 584q0 -35 -16.5 -55.5t-42 -32.5t-54.5 -19.5t-54.5 -17.5t-42 -25t-16.5 -43v-82h226v-29h-280v111q0 35 16.5 55t42 32t54.5 20t54.5 17.5t42 25t16.5 43.5q0 19 -7.5 34t-19.5 25.5t-27.5 16.5t-31.5 6q-18 0 -33.5 -6.5t-27 -18t-18.5 -26t-7 -31.5h-54
q0 28 12.5 49.5t32 36.5t45 22.5t50.5 7.5q20 0 44.5 -6t45.5 -20t35.5 -36t14.5 -54z" />
    <glyph glyph-name="threesuperior" unicode="&#xb3;" horiz-adv-x="380" 
d="M205 487q5 -2 16.5 -9t23.5 -19t21 -28.5t9 -39.5t-11 -43t-30 -35t-44.5 -24t-54.5 -9h-140v29h140q18 0 33.5 6.5t27 17.5t18.5 26t7 32t-7 32t-18.5 26t-27 17.5t-33.5 6.5h-130v29h121q36 0 61 24t25 58t-25 58t-61 24h-126v29h126q29 0 54.5 -8.5t45 -23.5
t30.5 -35.5t11 -43.5q0 -22 -7.5 -39t-18 -29t-20.5 -19t-16 -10z" />
    <glyph glyph-name="onesuperior" unicode="&#xb9;" horiz-adv-x="244" 
d="M139 280h-54v326q-4 -2 -26.5 -12.5t-58.5 -10.5v31q17 0 32.5 6t27 17t18.5 25.5t7 32.5h54v-415z" />
    <glyph glyph-name="onequarter" unicode="&#xbc;" horiz-adv-x="753" 
d="M648 125h-54v-125h-55v125h-31q-29 0 -54.5 9t-44.5 24t-30 35t-11 43v179h54v-179q0 -17 7 -31.5t18.5 -25.5t27 -17.5t33.5 -6.5h31v157h55v-157h54v-30zM140 280h-54v326q-4 -2 -26.5 -12.5t-59.5 -10.5v31q17 0 32.5 6t27.5 17t19 25.5t7 32.5h54v-415zM88 0h-43
l383 692h44z" />
    <glyph glyph-name="onehalf" unicode="&#xbd;" horiz-adv-x="716" 
d="M611 304q0 -35 -16.5 -55.5t-42 -32.5t-54.5 -19.5t-54.5 -17.5t-42 -25t-16.5 -43v-82h226v-29h-280v111q0 35 16.5 55t42 32t54.5 20t54.5 17.5t42 25t16.5 43.5q0 19 -7.5 34t-19.5 25.5t-27 16.5t-31 6q-36 0 -61 -24.5t-25 -57.5h-55q0 28 12.5 49.5t32.5 36.5
t45 22.5t51 7.5q20 0 44 -6t45 -20t35.5 -36t14.5 -54zM140 280h-54v326q-4 -2 -26.5 -12.5t-59.5 -10.5v31q17 0 32.5 6t27.5 17t19 25.5t7 32.5h54v-415zM89 0h-44l383 692h44z" />
    <glyph glyph-name="threequarters" unicode="&#xbe;" horiz-adv-x="836" 
d="M731 125h-55v-125h-54v125h-32q-29 0 -54.5 9t-44.5 24t-30 35t-11 43v179h54v-179q0 -17 7 -31.5t18.5 -25.5t27 -17.5t33.5 -6.5h32v157h54v-157h55v-30zM210 487q5 -2 16.5 -9t23.5 -19t21 -28.5t9 -39.5t-11 -43t-30 -35t-44.5 -24t-54.5 -9h-140v29h140
q18 0 33.5 6.5t27 17.5t18.5 26t7 32t-7 32t-18.5 26t-27 17.5t-33.5 6.5h-130v29h121q36 0 61 24t25 58t-25 58t-61 24h-126v29h126q29 0 54.5 -8.5t45 -23.5t30.5 -35.5t11 -43.5q0 -22 -7.5 -39t-18 -29t-20.5 -19t-16 -10zM171 0h-44l384 692h43z" />
    <glyph glyph-name="hyphen" unicode="-" horiz-adv-x="360" 
d="M0 231v49h255v-49h-255z" />
    <glyph glyph-name="underscore" unicode="_" horiz-adv-x="592" 
d="M0 0h512v-49h-512v49z" />
    <glyph glyph-name="space" unicode=" " horiz-adv-x="300" 
 />
    <glyph glyph-name="cedilla" unicode="&#xb8;" horiz-adv-x="296" 
d="M121 0l-28 -33l2 -1q6 1 11.5 1.5t10.5 0.5q38 0 56 -19.5t18 -42.5q0 -24 -15 -42q-14 -15 -35 -26.5t-49 -11.5q-20 0 -43 8t-49 28l16 16l13 13q15 -14 27.5 -19.5t33.5 -5.5q23 3 33 13t10 21q0 13 -11 22.5t-31 9.5q-16 0 -34 -7l-19 34l32 46z" />
    <glyph glyph-name="Ccedilla" unicode="&#xc7;" horiz-adv-x="535" 
d="M223 41q28 0 53 10.5t43.5 29t29 43.5t10.5 53h86q0 -37 -16.5 -70.5t-45.5 -58t-68 -40t-83 -16.5l-28 -33l2 -1q6 1 11.5 1.5t10.5 0.5q38 0 55.5 -19.5t17.5 -42.5t-15 -41q-13 -16 -34 -27.5t-49 -11.5q-20 0 -43 8t-49 28l16 16l13 13q15 -14 27.5 -19.5t33.5 -5.5
q23 3 33 13.5t10 21.5q0 12 -11 22t-31 10q-13 0 -34 -8l-19 34l31 44q-39 6 -72 23t-57 41t-37.5 54t-13.5 64v338q0 38 17.5 72t48 59t71 39.5t86.5 14.5t86.5 -14.5t70.5 -39.5t47.5 -59t17.5 -72h-86q0 28 -10.5 52.5t-29 43t-43 29.5t-53.5 11q-28 0 -53 -10.5t-44 -29
t-29.5 -43.5t-10.5 -53v-338q0 -28 11 -53t29.5 -43.5t43.5 -29t53 -10.5z" />
    <glyph glyph-name="endash" unicode="&#x2013;" horiz-adv-x="500" 
d="M0 280h445v-49h-445v49z" />
    <glyph glyph-name="macron" unicode="&#xaf;" horiz-adv-x="378" 
d="M0 590h263v-45h-263v45z" />
    <glyph glyph-name="emdash" unicode="&#x2014;" horiz-adv-x="909" 
d="M0 280h804v-49h-804v49z" />
    <glyph glyph-name="bar" unicode="|" horiz-adv-x="164" 
d="M49 -81h-49v892h49v-892z" />
    <glyph glyph-name="uacute" unicode="&#xfa;" horiz-adv-x="441" 
d="M136 512h-44l76 109h93zM337 461v-339q0 -27 -13.5 -50.5t-36.5 -41.5t-53.5 -28t-65.5 -10t-65.5 10t-53.5 28t-36 41.5t-13 50.5v339h82v-339q0 -36 25 -61.5t61 -25.5t61.5 25.5t25.5 61.5v339h82z" />
    <glyph glyph-name="Oslash" unicode="&#xd8;" horiz-adv-x="535" 
d="M363 658q38 -26 60 -62.5t22 -80.5v-339q0 -38 -17.5 -71.5t-47.5 -58.5t-70.5 -39.5t-86.5 -14.5q-52 0 -96 18l-6 -18h-54l15 42q-38 25 -60 61.5t-22 80.5v339q0 38 17.5 72t48 59t71 39.5t86.5 14.5q52 0 95 -18l6 18h55l-16 -42v0zM86 177q0 -20 5.5 -38.5
t15.5 -34.5l191 524q-32 23 -75 23q-28 0 -53 -10.5t-43.5 -29t-29.5 -43t-11 -52.5v-339zM359 515q0 20 -5.5 38.5t-15.5 34.5l-191 -524q34 -23 76 -23q28 0 52.5 10.5t43 28.5t29.5 42.5t11 52.5v340z" />
    <glyph glyph-name="ugrave" unicode="&#xf9;" horiz-adv-x="441" 
d="M193 512l-125 109h93l76 -109h-44zM337 461v-339q0 -27 -13.5 -50.5t-36.5 -41.5t-53.5 -28t-65.5 -10t-65.5 10t-53.5 28t-36 41.5t-13 50.5v339h82v-339q0 -36 25 -61.5t61 -25.5t61.5 25.5t25.5 61.5v339h82z" />
    <glyph glyph-name="Eth" unicode="&#xd0;" horiz-adv-x="575" 
d="M253 692q47 0 87.5 -14.5t70.5 -40t47 -59.5t17 -72v-321q0 -39 -17.5 -72.5t-47.5 -58.5t-70.5 -39.5t-86.5 -14.5h-223v342h-80v49h80v301h223zM389 506q0 29 -10.5 53.5t-29 43.5t-43.5 29.5t-53 10.5h-137v-252h167v-49h-167v-293h137q28 0 53 10.5t43.5 29t29 43.5
t10.5 53v321z" />
    <glyph glyph-name="Thorn" unicode="&#xde;" horiz-adv-x="500" 
d="M223 519q47 0 87.5 -14.5t70.5 -40t47 -59t17 -71.5t-17 -71.5t-47 -59t-70.5 -40t-87.5 -14.5h-137v-149h-86v692h86v-173h137zM223 198q29 0 53.5 11t43 29.5t29 43t10.5 52.5t-10.5 53t-29 43.5t-43 29.5t-53.5 11h-137v-273h137z" />
    <glyph glyph-name="thorn" unicode="&#xfe;" horiz-adv-x="442" 
d="M190 469q30 0 57 -10t47 -28t31.5 -41.5t11.5 -50.5v-217q0 -27 -11.5 -50.5t-31.5 -41.5t-47 -28t-57 -10q-26 0 -45.5 6.5t-33.5 14.5q-16 9 -28 20h-1v-294h-82v953h80v-265h2q12 11 28 21q14 8 34 14.5t46 6.5zM255 339q0 18 -7 34t-18.5 27.5t-27 18.5t-33.5 7
q-36 0 -61.5 -25.5t-25.5 -61.5v-217q0 -18 6.5 -33.5t18.5 -27.5t28 -19t34 -7t33.5 7t27.5 19t18.5 27.5t6.5 33.5v217z" />
    <glyph glyph-name="eth" unicode="&#xf0;" horiz-adv-x="465" 
d="M415 689l-79 -56v-625h-79v34h-2q-11 -11 -28 -21q-14 -8 -34.5 -14.5t-46.5 -6.5q-30 0 -56.5 10t-46.5 28t-31.5 41.5t-11.5 50.5v217q0 27 11.5 50.5t31.5 41.5t46.5 28t56.5 10q26 0 45.5 -6t33.5 -14q16 -9 28 -21h2v140l-82 -57v49l82 57v113h78v-60l82 60v-49z
M255 347q0 18 -6.5 33.5t-18.5 27.5t-28 19t-34 7t-34 -7t-28 -19t-18.5 -27.5t-6.5 -33.5v-217q0 -36 25.5 -61.5t61.5 -25.5t61.5 25.5t25.5 61.5v217z" />
    <glyph glyph-name="brokenbar" unicode="&#xa6;" horiz-adv-x="164" 
d="M49 505h-49v306h49v-306zM49 -80h-49v306h49v-306z" />
    <glyph glyph-name="oslash" unicode="&#xf8;" horiz-adv-x="480" 
d="M425 373l-53 -38v-205q0 -27 -13 -50.5t-36 -41.5t-53.5 -28t-65.5 -10q-30 0 -57.5 8t-49 21.5t-37 32t-21.5 40.5l-59 -41v49l56 39v198q0 27 13 50.5t36 41.5t53.5 28t65.5 10q29 0 55.5 -7.5t47.5 -20t36.5 -30.5t22.5 -39l59 42v-49zM117 206l174 121v20
q0 36 -25.5 61.5t-61.5 25.5t-61.5 -25.5t-25.5 -61.5v-141zM291 278l-174 -121v-27q0 -36 25.5 -61.5t61.5 -25.5t61.5 25.5t25.5 61.5v148z" />
    <glyph glyph-name="ordfeminine" unicode="&#xaa;" horiz-adv-x="327" 
d="M106 738q22 0 41 -6t33.5 -16.5t23 -25t8.5 -30.5v-204h-50v21h-1q-7 -7 -18 -13q-9 -5 -21 -9t-29 -4q-19 0 -35.5 6t-29.5 16.5t-20.5 25t-7.5 30.5q0 17 7.5 31t20 24.5t29.5 16.5t36 6h68v53q0 21 -16 36.5t-39 15.5q-16 0 -28.5 -8t-19.5 -21l-30 29q14 12 34.5 19
t43.5 7zM161 581h-55q-23 0 -38.5 -15t-15.5 -37t15.5 -37t38.5 -15t39 15t16 37v52z" />
    <glyph glyph-name="ordmasculine" unicode="&#xba;" horiz-adv-x="376" 
d="M136 733q28 0 52.5 -10.5t43 -29t29 -43.5t10.5 -53t-10.5 -53t-29 -43.5t-43 -29t-52.5 -10.5t-53 10.5t-43.5 29t-29 43.5t-10.5 53t10.5 53t29 43.5t43.5 29t53 10.5zM136 516q34 0 57.5 23.5t23.5 57.5t-23.5 57.5t-57.5 23.5t-58 -23.5t-24 -57.5t24 -57.5t58 -23.5
z" />
    <glyph glyph-name="paragraph" unicode="&#xb6;" horiz-adv-x="602" 
d="M497 817v-817h-70v782h-100v-782h-72v467h-108q-30 0 -57 10t-47 28t-31.5 41.5t-11.5 50.5v90q0 27 11.5 50.5t31.5 41.5t47 28t57 10h350z" />
  </font>
</defs>
</svg>
